<?xml version="1.0" encoding="UTF-8"?>
<svg width="120px" height="120px" viewBox="0 0 120 120" version="1.1" xmlns="http://www.w3.org/2000/svg" xmlns:xlink="http://www.w3.org/1999/xlink">
    <!-- Generator: Sketch 43.1 (39012) - http://www.bohemiancoding.com/sketch -->
    <title>Rectangle 10</title>
    <desc>Created with Sketch.</desc>
    <defs>
        <filter x="-24.1%" y="-20.7%" width="148.3%" height="151.7%" filterUnits="objectBoundingBox" id="filter-1">
            <feOffset dx="0" dy="2" in="SourceAlpha" result="shadowOffsetOuter1"></feOffset>
            <feGaussianBlur stdDeviation="2" in="shadowOffsetOuter1" result="shadowBlurOuter1"></feGaussianBlur>
            <feColorMatrix values="0 0 0 0 0   0 0 0 0 0   0 0 0 0 0  0 0 0 0.0714164402 0" type="matrix" in="shadowBlurOuter1" result="shadowMatrixOuter1"></feColorMatrix>
            <feMerge>
                <feMergeNode in="shadowMatrixOuter1"></feMergeNode>
                <feMergeNode in="SourceGraphic"></feMergeNode>
            </feMerge>
        </filter>
    </defs>
    <g id="Page-1" stroke="none" stroke-width="1" fill="none" fill-rule="evenodd">
        <g id="我要租房" transform="translate(-940.000000, -2919.000000)">
            <rect id="Rectangle-18" fill="#F4F4F4" x="0" y="0" width="1920" height="3200"></rect>
            <g id="底部" transform="translate(0.000000, 2879.000000)">
                <polygon id="area_bg" fill="#333333" points="0 0 1920 0 1920 272 0 272"></polygon>
                <g id="APP下载二维码" transform="translate(939.333333, 40.000000)">
                    <g id="二维码" transform="translate(0.666667, 0.000000)">
                        <rect id="Rectangle-10" fill="#FEFFFF" x="0" y="0" width="120" height="120"></rect>
                        <path d="M4,7.02702703 L4,4 L7.02702703,4 L7.02702703,7.02702703 L4,7.02702703 Z M4,10.0540541 L4,7.02702703 L7.02702703,7.02702703 L7.02702703,10.0540541 L4,10.0540541 Z M4,13.0810811 L4,10.0540541 L7.02702703,10.0540541 L7.02702703,13.0810811 L4,13.0810811 Z M4,16.1081081 L4,13.0810811 L7.02702703,13.0810811 L7.02702703,16.1081081 L4,16.1081081 Z M4,19.1351351 L4,16.1081081 L7.02702703,16.1081081 L7.02702703,19.1351351 L4,19.1351351 Z M4,22.1621622 L4,19.1355135 L7.02702703,19.1355135 L7.02702703,22.1621622 L4,22.1621622 Z M4,25.1891892 L4,22.1621622 L7.02702703,22.1621622 L7.02702703,25.1891892 L4,25.1891892 Z M4,34.2702703 L4,31.2432432 L7.02702703,31.2432432 L7.02702703,34.2702703 L4,34.2702703 Z M4,37.2972973 L4,34.2702703 L7.02702703,34.2702703 L7.02702703,37.2972973 L4,37.2972973 Z M4,43.3513514 L4,40.3243243 L7.02702703,40.3243243 L7.02702703,43.3513514 L4,43.3513514 Z M4,49.4054054 L4,46.3787568 L7.02702703,46.3787568 L7.02702703,49.4054054 L4,49.4054054 Z M4,52.4324324 L4,49.4054054 L7.02702703,49.4054054 L7.02702703,52.4324324 L4,52.4324324 Z M4,55.4594595 L4,52.4324324 L7.02702703,52.4324324 L7.02702703,55.4594595 L4,55.4594595 Z M4,58.4864865 L4,55.4594595 L7.02702703,55.4594595 L7.02702703,58.4864865 L4,58.4864865 Z M4,61.5135135 L4,58.4864865 L7.02702703,58.4864865 L7.02702703,61.5135135 L4,61.5135135 Z M4,67.5675676 L4,64.5405405 L7.02702703,64.5405405 L7.02702703,67.5675676 L4,67.5675676 Z M4,70.5945946 L4,67.5675676 L7.02702703,67.5675676 L7.02702703,70.5945946 L4,70.5945946 Z M4,82.7027027 L4,79.6756757 L7.02702703,79.6756757 L7.02702703,82.7027027 L4,82.7027027 Z M4,85.7297297 L4,82.7027027 L7.02702703,82.7027027 L7.02702703,85.7297297 L4,85.7297297 Z M4,88.7567568 L4,85.7297297 L7.02702703,85.7297297 L7.02702703,88.7567568 L4,88.7567568 Z M4,91.7837838 L4,88.7567568 L7.02702703,88.7567568 L7.02702703,91.7837838 L4,91.7837838 Z M4,97.8378378 L4,94.8108108 L7.02702703,94.8108108 L7.02702703,97.8378378 L4,97.8378378 Z M4,100.864865 L4,97.8378378 L7.02702703,97.8378378 L7.02702703,100.864865 L4,100.864865 Z M4,103.891892 L4,100.865243 L7.02702703,100.865243 L7.02702703,103.891892 L4,103.891892 Z M4,106.918919 L4,103.891892 L7.02702703,103.891892 L7.02702703,106.918919 L4,106.918919 Z M4,109.945946 L4,106.918919 L7.02702703,106.918919 L7.02702703,109.945946 L4,109.945946 Z M4,112.972973 L4,109.945946 L7.02702703,109.945946 L7.02702703,112.972973 L4,112.972973 Z M4,116 L4,112.972973 L7.02702703,112.972973 L7.02702703,116 L4,116 Z M7.02702703,7.02702703 L7.02702703,4 L10.0540541,4 L10.0540541,7.02702703 L7.02702703,7.02702703 Z M7.02702703,25.1891892 L7.02702703,22.1621622 L10.0540541,22.1621622 L10.0540541,25.1891892 L7.02702703,25.1891892 Z M7.02702703,37.2972973 L7.02702703,34.2702703 L10.0540541,34.2702703 L10.0540541,37.2972973 L7.02702703,37.2972973 Z M7.02702703,40.3243243 L7.02702703,37.2972973 L10.0540541,37.2972973 L10.0540541,40.3243243 L7.02702703,40.3243243 Z M7.02702703,43.3513514 L7.02702703,40.3243243 L10.0540541,40.3243243 L10.0540541,43.3513514 L7.02702703,43.3513514 Z M7.02702703,49.4054054 L7.02702703,46.3783784 L10.0540541,46.3783784 L10.0540541,49.4054054 L7.02702703,49.4054054 Z M7.02702703,55.4594595 L7.02702703,52.4324324 L10.0540541,52.4324324 L10.0540541,55.4594595 L7.02702703,55.4594595 Z M7.02702703,58.4864865 L7.02702703,55.4594595 L10.0540541,55.4594595 L10.0540541,58.4864865 L7.02702703,58.4864865 Z M7.02702703,67.5675676 L7.02702703,64.5405405 L10.0540541,64.5405405 L10.0540541,67.5675676 L7.02702703,67.5675676 Z M7.02702703,70.5945946 L7.02702703,67.5675676 L10.0540541,67.5675676 L10.0540541,70.5945946 L7.02702703,70.5945946 Z M7.02702703,76.6486486 L7.02702703,73.6216216 L10.0540541,73.6216216 L10.0540541,76.6486486 L7.02702703,76.6486486 Z M7.02702703,82.7027027 L7.02702703,79.6756757 L10.0540541,79.6756757 L10.0540541,82.7027027 L7.02702703,82.7027027 Z M7.02702703,97.8378378 L7.02702703,94.8108108 L10.0540541,94.8108108 L10.0540541,97.8378378 L7.02702703,97.8378378 Z M7.02702703,116 L7.02702703,112.972973 L10.0540541,112.972973 L10.0540541,116 L7.02702703,116 Z M10.0540541,7.02702703 L10.0540541,4 L13.0810811,4 L13.0810811,7.02702703 L10.0540541,7.02702703 Z M10.0540541,13.0810811 L10.0540541,10.0540541 L13.0810811,10.0540541 L13.0810811,13.0810811 L10.0540541,13.0810811 Z M10.0540541,16.1081081 L10.0540541,13.0810811 L13.0810811,13.0810811 L13.0810811,16.1081081 L10.0540541,16.1081081 Z M10.0540541,19.1351351 L10.0540541,16.1081081 L13.0810811,16.1081081 L13.0810811,19.1351351 L10.0540541,19.1351351 Z M10.0540541,25.1891892 L10.0540541,22.1621622 L13.0810811,22.1621622 L13.0810811,25.1891892 L10.0540541,25.1891892 Z M10.0540541,31.2432432 L10.0540541,28.2162162 L13.0810811,28.2162162 L13.0810811,31.2432432 L10.0540541,31.2432432 Z M10.0540541,43.3513514 L10.0540541,40.3243243 L13.0810811,40.3243243 L13.0810811,43.3513514 L10.0540541,43.3513514 Z M10.0540541,52.4324324 L10.0540541,49.4054054 L13.0810811,49.4054054 L13.0810811,52.4324324 L10.0540541,52.4324324 Z M10.0540541,55.4594595 L10.0540541,52.4324324 L13.0810811,52.4324324 L13.0810811,55.4594595 L10.0540541,55.4594595 Z M10.0540541,67.5675676 L10.0540541,64.5405405 L13.0810811,64.5405405 L13.0810811,67.5675676 L10.0540541,67.5675676 Z M10.0540541,76.6486486 L10.0540541,73.6216216 L13.0810811,73.6216216 L13.0810811,76.6486486 L10.0540541,76.6486486 Z M10.0540541,82.7027027 L10.0540541,79.6756757 L13.0810811,79.6756757 L13.0810811,82.7027027 L10.0540541,82.7027027 Z M10.0540541,97.8378378 L10.0540541,94.8108108 L13.0810811,94.8108108 L13.0810811,97.8378378 L10.0540541,97.8378378 Z M10.0540541,103.891892 L10.0540541,100.864865 L13.0810811,100.864865 L13.0810811,103.891892 L10.0540541,103.891892 Z M10.0540541,106.918919 L10.0540541,103.891892 L13.0810811,103.891892 L13.0810811,106.918919 L10.0540541,106.918919 Z M10.0540541,109.945946 L10.0540541,106.918919 L13.0810811,106.918919 L13.0810811,109.945946 L10.0540541,109.945946 Z M10.0540541,116 L10.0540541,112.972973 L13.0810811,112.972973 L13.0810811,116 L10.0540541,116 Z M13.0810811,7.02702703 L13.0810811,4 L16.1081081,4 L16.1081081,7.02702703 L13.0810811,7.02702703 Z M13.0810811,13.0810811 L13.0810811,10.0540541 L16.1081081,10.0540541 L16.1081081,13.0810811 L13.0810811,13.0810811 Z M13.0810811,16.1081081 L13.0810811,13.0810811 L16.1081081,13.0810811 L16.1081081,16.1081081 L13.0810811,16.1081081 Z M13.0810811,19.1351351 L13.0810811,16.1081081 L16.1081081,16.1081081 L16.1081081,19.1351351 L13.0810811,19.1351351 Z M13.0810811,25.1891892 L13.0810811,22.1621622 L16.1081081,22.1621622 L16.1081081,25.1891892 L13.0810811,25.1891892 Z M13.0810811,31.2432432 L13.0810811,28.2162162 L16.1081081,28.2162162 L16.1081081,31.2432432 L13.0810811,31.2432432 Z M13.0810811,34.2702703 L13.0810811,31.2432432 L16.1081081,31.2432432 L16.1081081,34.2702703 L13.0810811,34.2702703 Z M13.0810811,37.2972973 L13.0810811,34.2702703 L16.1081081,34.2702703 L16.1081081,37.2972973 L13.0810811,37.2972973 Z M13.0810811,43.3513514 L13.0810811,40.3243243 L16.1081081,40.3243243 L16.1081081,43.3513514 L13.0810811,43.3513514 Z M13.0810811,46.3783784 L13.0810811,43.3513514 L16.1081081,43.3513514 L16.1081081,46.3783784 L13.0810811,46.3783784 Z M13.0810811,55.4594595 L13.0810811,52.4324324 L16.1081081,52.4324324 L16.1081081,55.4594595 L13.0810811,55.4594595 Z M13.0810811,58.4864865 L13.0810811,55.4594595 L16.1081081,55.4594595 L16.1081081,58.4864865 L13.0810811,58.4864865 Z M13.0810811,61.5135135 L13.0810811,58.4864865 L16.1081081,58.4864865 L16.1081081,61.5135135 L13.0810811,61.5135135 Z M13.0810811,64.5405405 L13.0810811,61.5135135 L16.1081081,61.5135135 L16.1081081,64.5405405 L13.0810811,64.5405405 Z M13.0810811,76.6486486 L13.0810811,73.6216216 L16.1081081,73.6216216 L16.1081081,76.6486486 L13.0810811,76.6486486 Z M13.0810811,79.6756757 L13.0810811,76.6486486 L16.1081081,76.6486486 L16.1081081,79.6756757 L13.0810811,79.6756757 Z M13.0810811,85.7297297 L13.0810811,82.7027027 L16.1081081,82.7027027 L16.1081081,85.7297297 L13.0810811,85.7297297 Z M13.0810811,88.7567568 L13.0810811,85.7297297 L16.1081081,85.7297297 L16.1081081,88.7567568 L13.0810811,88.7567568 Z M13.0810811,91.7837838 L13.0810811,88.7567568 L16.1081081,88.7567568 L16.1081081,91.7837838 L13.0810811,91.7837838 Z M13.0810811,97.8378378 L13.0810811,94.8108108 L16.1081081,94.8108108 L16.1081081,97.8378378 L13.0810811,97.8378378 Z M13.0810811,103.891892 L13.0810811,100.864865 L16.1081081,100.864865 L16.1081081,103.891892 L13.0810811,103.891892 Z M13.0810811,106.918919 L13.0810811,103.891892 L16.1081081,103.891892 L16.1081081,106.918919 L13.0810811,106.918919 Z M13.0810811,109.945946 L13.0810811,106.918919 L16.1081081,106.918919 L16.1081081,109.945946 L13.0810811,109.945946 Z M13.0810811,116 L13.0810811,112.972973 L16.1081081,112.972973 L16.1081081,116 L13.0810811,116 Z M16.1081081,7.02702703 L16.1081081,4 L19.1347568,4 L19.1347568,7.02702703 L16.1081081,7.02702703 Z M16.1081081,13.0810811 L16.1081081,10.0540541 L19.1351351,10.0540541 L19.1351351,13.0810811 L16.1081081,13.0810811 Z M16.1081081,16.1081081 L16.1081081,13.0810811 L19.1351351,13.0810811 L19.1351351,16.1081081 L16.1081081,16.1081081 Z M16.1081081,19.1351351 L16.1081081,16.1081081 L19.1351351,16.1081081 L19.1351351,19.1351351 L16.1081081,19.1351351 Z M16.1081081,25.1891892 L16.1081081,22.1621622 L19.1351351,22.1621622 L19.1351351,25.1891892 L16.1081081,25.1891892 Z M16.1081081,31.2432432 L16.1081081,28.2162162 L19.1351351,28.2162162 L19.1351351,31.2432432 L16.1081081,31.2432432 Z M16.1081081,34.2702703 L16.1081081,31.2432432 L19.1351351,31.2432432 L19.1351351,34.2702703 L16.1081081,34.2702703 Z M16.1081081,37.2972973 L16.1081081,34.2702703 L19.1351351,34.2702703 L19.1351351,37.2972973 L16.1081081,37.2972973 Z M16.1081081,40.3243243 L16.1081081,37.2972973 L19.1351351,37.2972973 L19.1351351,40.3243243 L16.1081081,40.3243243 Z M16.1081081,46.3783784 L16.1081081,43.3513514 L19.1351351,43.3513514 L19.1351351,46.3783784 L16.1081081,46.3783784 Z M16.1081081,49.4054054 L16.1081081,46.3783784 L19.1351351,46.3783784 L19.1351351,49.4054054 L16.1081081,49.4054054 Z M16.1081081,55.4594595 L16.1081081,52.4324324 L19.1351351,52.4324324 L19.1351351,55.4594595 L16.1081081,55.4594595 Z M16.1081081,58.4864865 L16.1081081,55.4594595 L19.1351351,55.4594595 L19.1351351,58.4864865 L16.1081081,58.4864865 Z M16.1081081,64.5405405 L16.1081081,61.5135135 L19.1351351,61.5135135 L19.1351351,64.5405405 L16.1081081,64.5405405 Z M16.1081081,73.6216216 L16.1081081,70.5945946 L19.1351351,70.5945946 L19.1351351,73.6216216 L16.1081081,73.6216216 Z M16.1081081,79.6756757 L16.1081081,76.6486486 L19.1351351,76.6486486 L19.1351351,79.6756757 L16.1081081,79.6756757 Z M16.1081081,91.7837838 L16.1081081,88.7567568 L19.1351351,88.7567568 L19.1351351,91.7837838 L16.1081081,91.7837838 Z M16.1081081,97.8378378 L16.1081081,94.8108108 L19.1351351,94.8108108 L19.1351351,97.8378378 L16.1081081,97.8378378 Z M16.1081081,103.891892 L16.1081081,100.864865 L19.1351351,100.864865 L19.1351351,103.891892 L16.1081081,103.891892 Z M16.1081081,106.918919 L16.1081081,103.891892 L19.1351351,103.891892 L19.1351351,106.918919 L16.1081081,106.918919 Z M16.1081081,109.945946 L16.1081081,106.918919 L19.1351351,106.918919 L19.1351351,109.945946 L16.1081081,109.945946 Z M16.1081081,116 L16.1081081,112.972973 L19.1347568,112.972973 L19.1347568,116 L16.1081081,116 Z M19.1351351,7.02702703 L19.1351351,4 L22.1621622,4 L22.1621622,7.02702703 L19.1351351,7.02702703 Z M19.1351351,25.1891892 L19.1351351,22.1621622 L22.1621622,22.1621622 L22.1621622,25.1891892 L19.1351351,25.1891892 Z M19.1351351,34.2702703 L19.1351351,31.2432432 L22.1621622,31.2432432 L22.1621622,34.2702703 L19.1351351,34.2702703 Z M19.1351351,40.3243243 L19.1351351,37.2972973 L22.1621622,37.2972973 L22.1621622,40.3243243 L19.1351351,40.3243243 Z M19.1351351,46.3783784 L19.1351351,43.3513514 L22.1621622,43.3513514 L22.1621622,46.3783784 L19.1351351,46.3783784 Z M19.1351351,58.4864865 L19.1351351,55.4594595 L22.1621622,55.4594595 L22.1621622,58.4864865 L19.1351351,58.4864865 Z M19.1351351,61.5135135 L19.1351351,58.4864865 L22.1621622,58.4864865 L22.1621622,61.5135135 L19.1351351,61.5135135 Z M19.1351351,70.5945946 L19.1351351,67.5675676 L22.1621622,67.5675676 L22.1621622,70.5945946 L19.1351351,70.5945946 Z M19.1351351,73.6216216 L19.1351351,70.5945946 L22.1621622,70.5945946 L22.1621622,73.6216216 L19.1351351,73.6216216 Z M19.1351351,76.6486486 L19.1351351,73.6216216 L22.1621622,73.6216216 L22.1621622,76.6486486 L19.1351351,76.6486486 Z M19.1351351,82.7027027 L19.1351351,79.6756757 L22.1621622,79.6756757 L22.1621622,82.7027027 L19.1351351,82.7027027 Z M19.1351351,91.7837838 L19.1351351,88.7567568 L22.1621622,88.7567568 L22.1621622,91.7837838 L19.1351351,91.7837838 Z M19.1351351,97.8378378 L19.1351351,94.8108108 L22.1621622,94.8108108 L22.1621622,97.8378378 L19.1351351,97.8378378 Z M19.1351351,116 L19.1351351,112.972973 L22.1621622,112.972973 L22.1621622,116 L19.1351351,116 Z M22.1621622,7.02702703 L22.1621622,4 L25.1891892,4 L25.1891892,7.02702703 L22.1621622,7.02702703 Z M22.1621622,10.0540541 L22.1621622,7.02702703 L25.1891892,7.02702703 L25.1891892,10.0540541 L22.1621622,10.0540541 Z M22.1621622,13.0810811 L22.1621622,10.0540541 L25.1891892,10.0540541 L25.1891892,13.0810811 L22.1621622,13.0810811 Z M22.1621622,16.1081081 L22.1621622,13.0810811 L25.1891892,13.0810811 L25.1891892,16.1081081 L22.1621622,16.1081081 Z M22.1621622,19.1351351 L22.1621622,16.1081081 L25.1891892,16.1081081 L25.1891892,19.1351351 L22.1621622,19.1351351 Z M22.1621622,22.1621622 L22.1621622,19.1351351 L25.1891892,19.1351351 L25.1891892,22.1621622 L22.1621622,22.1621622 Z M22.1621622,25.1891892 L22.1621622,22.1621622 L25.1891892,22.1621622 L25.1891892,25.1891892 L22.1621622,25.1891892 Z M22.1621622,31.2432432 L22.1621622,28.2162162 L25.1891892,28.2162162 L25.1891892,31.2432432 L22.1621622,31.2432432 Z M22.1621622,37.2972973 L22.1621622,34.2702703 L25.1891892,34.2702703 L25.1891892,37.2972973 L22.1621622,37.2972973 Z M22.1621622,43.3513514 L22.1621622,40.3243243 L25.1891892,40.3243243 L25.1891892,43.3513514 L22.1621622,43.3513514 Z M22.1621622,49.4054054 L22.1621622,46.3783784 L25.1891892,46.3783784 L25.1891892,49.4054054 L22.1621622,49.4054054 Z M22.1621622,55.4594595 L22.1621622,52.4324324 L25.1891892,52.4324324 L25.1891892,55.4594595 L22.1621622,55.4594595 Z M22.1621622,61.5135135 L22.1621622,58.4864865 L25.1891892,58.4864865 L25.1891892,61.5135135 L22.1621622,61.5135135 Z M22.1621622,67.5675676 L22.1621622,64.5405405 L25.1891892,64.5405405 L25.1891892,67.5675676 L22.1621622,67.5675676 Z M22.1621622,73.6216216 L22.1621622,70.5945946 L25.1891892,70.5945946 L25.1891892,73.6216216 L22.1621622,73.6216216 Z M22.1621622,79.6756757 L22.1621622,76.6486486 L25.1891892,76.6486486 L25.1891892,79.6756757 L22.1621622,79.6756757 Z M22.1621622,85.7297297 L22.1621622,82.7027027 L25.1891892,82.7027027 L25.1891892,85.7297297 L22.1621622,85.7297297 Z M22.1621622,91.7837838 L22.1621622,88.7567568 L25.1891892,88.7567568 L25.1891892,91.7837838 L22.1621622,91.7837838 Z M22.1621622,97.8378378 L22.1621622,94.8108108 L25.1891892,94.8108108 L25.1891892,97.8378378 L22.1621622,97.8378378 Z M22.1621622,100.864865 L22.1621622,97.8378378 L25.1891892,97.8378378 L25.1891892,100.864865 L22.1621622,100.864865 Z M22.1621622,103.891892 L22.1621622,100.864865 L25.1891892,100.864865 L25.1891892,103.891892 L22.1621622,103.891892 Z M22.1621622,106.918919 L22.1621622,103.891892 L25.1891892,103.891892 L25.1891892,106.918919 L22.1621622,106.918919 Z M22.1621622,109.945946 L22.1621622,106.918919 L25.1891892,106.918919 L25.1891892,109.945946 L22.1621622,109.945946 Z M22.1621622,112.972973 L22.1621622,109.945946 L25.1891892,109.945946 L25.1891892,112.972973 L22.1621622,112.972973 Z M22.1621622,116 L22.1621622,112.972973 L25.1891892,112.972973 L25.1891892,116 L22.1621622,116 Z M25.1891892,40.3243243 L25.1891892,37.2972973 L28.2162162,37.2972973 L28.2162162,40.3243243 L25.1891892,40.3243243 Z M25.1891892,49.4054054 L25.1891892,46.3783784 L28.2162162,46.3783784 L28.2162162,49.4054054 L25.1891892,49.4054054 Z M25.1891892,52.4324324 L25.1891892,49.4054054 L28.2162162,49.4054054 L28.2162162,52.4324324 L25.1891892,52.4324324 Z M25.1891892,55.4594595 L25.1891892,52.4324324 L28.2162162,52.4324324 L28.2162162,55.4594595 L25.1891892,55.4594595 Z M25.1891892,61.5135135 L25.1891892,58.4864865 L28.2162162,58.4864865 L28.2162162,61.5135135 L25.1891892,61.5135135 Z M25.1891892,64.5405405 L25.1891892,61.5135135 L28.2162162,61.5135135 L28.2162162,64.5405405 L25.1891892,64.5405405 Z M25.1891892,70.5945946 L25.1891892,67.5675676 L28.2162162,67.5675676 L28.2162162,70.5945946 L25.1891892,70.5945946 Z M25.1891892,76.6486486 L25.1891892,73.6216216 L28.2162162,73.6216216 L28.2162162,76.6486486 L25.1891892,76.6486486 Z M25.1891892,79.6756757 L25.1891892,76.6486486 L28.2162162,76.6486486 L28.2162162,79.6756757 L25.1891892,79.6756757 Z M25.1891892,82.7027027 L25.1891892,79.6756757 L28.2162162,79.6756757 L28.2162162,82.7027027 L25.1891892,82.7027027 Z M25.1891892,85.7297297 L25.1891892,82.7027027 L28.2162162,82.7027027 L28.2162162,85.7297297 L25.1891892,85.7297297 Z M25.1891892,88.7567568 L25.1891892,85.7297297 L28.2162162,85.7297297 L28.2162162,88.7567568 L25.1891892,88.7567568 Z M25.1891892,91.7837838 L25.1891892,88.7567568 L28.2162162,88.7567568 L28.2162162,91.7837838 L25.1891892,91.7837838 Z M28.2162162,7.02702703 L28.2162162,4 L31.2432432,4 L31.2432432,7.02702703 L28.2162162,7.02702703 Z M28.2162162,10.0540541 L28.2162162,7.02702703 L31.2432432,7.02702703 L31.2432432,10.0540541 L28.2162162,10.0540541 Z M28.2162162,13.0810811 L28.2162162,10.0540541 L31.2432432,10.0540541 L31.2432432,13.0810811 L28.2162162,13.0810811 Z M28.2162162,22.1621622 L28.2162162,19.1351351 L31.2432432,19.1351351 L31.2432432,22.1621622 L28.2162162,22.1621622 Z M28.2162162,25.1891892 L28.2162162,22.1621622 L31.2432432,22.1621622 L31.2432432,25.1891892 L28.2162162,25.1891892 Z M28.2162162,28.2162162 L28.2162162,25.1891892 L31.2432432,25.1891892 L31.2432432,28.2162162 L28.2162162,28.2162162 Z M28.2162162,31.2432432 L28.2162162,28.2162162 L31.2432432,28.2162162 L31.2432432,31.2432432 L28.2162162,31.2432432 Z M28.2162162,34.2702703 L28.2162162,31.2432432 L31.2432432,31.2432432 L31.2432432,34.2702703 L28.2162162,34.2702703 Z M28.2162162,37.2972973 L28.2162162,34.2702703 L31.2432432,34.2702703 L31.2432432,37.2972973 L28.2162162,37.2972973 Z M28.2162162,40.3243243 L28.2162162,37.2972973 L31.2432432,37.2972973 L31.2432432,40.3243243 L28.2162162,40.3243243 Z M28.2162162,43.3513514 L28.2162162,40.3243243 L31.2432432,40.3243243 L31.2432432,43.3513514 L28.2162162,43.3513514 Z M28.2162162,58.4864865 L28.2162162,55.4594595 L31.2432432,55.4594595 L31.2432432,58.4864865 L28.2162162,58.4864865 Z M28.2162162,61.5135135 L28.2162162,58.4864865 L31.2432432,58.4864865 L31.2432432,61.5135135 L28.2162162,61.5135135 Z M28.2162162,64.5405405 L28.2162162,61.5135135 L31.2432432,61.5135135 L31.2432432,64.5405405 L28.2162162,64.5405405 Z M28.2162162,73.6216216 L28.2162162,70.5945946 L31.2432432,70.5945946 L31.2432432,73.6216216 L28.2162162,73.6216216 Z M28.2162162,76.6486486 L28.2162162,73.6216216 L31.2432432,73.6216216 L31.2432432,76.6486486 L28.2162162,76.6486486 Z M28.2162162,79.6756757 L28.2162162,76.6486486 L31.2432432,76.6486486 L31.2432432,79.6756757 L28.2162162,79.6756757 Z M28.2162162,82.7027027 L28.2162162,79.6756757 L31.2432432,79.6756757 L31.2432432,82.7027027 L28.2162162,82.7027027 Z M28.2162162,85.7297297 L28.2162162,82.7027027 L31.2432432,82.7027027 L31.2432432,85.7297297 L28.2162162,85.7297297 Z M28.2162162,94.8108108 L28.2162162,91.7837838 L31.2432432,91.7837838 L31.2432432,94.8108108 L28.2162162,94.8108108 Z M28.2162162,103.891892 L28.2162162,100.864865 L31.2432432,100.864865 L31.2432432,103.891892 L28.2162162,103.891892 Z M28.2162162,106.918919 L28.2162162,103.891892 L31.2432432,103.891892 L31.2432432,106.918919 L28.2162162,106.918919 Z M28.2162162,109.945946 L28.2162162,106.918919 L31.2432432,106.918919 L31.2432432,109.945946 L28.2162162,109.945946 Z M31.2432432,7.02702703 L31.2432432,4 L34.2702703,4 L34.2702703,7.02702703 L31.2432432,7.02702703 Z M31.2432432,13.0810811 L31.2432432,10.0540541 L34.2702703,10.0540541 L34.2702703,13.0810811 L31.2432432,13.0810811 Z M31.2432432,19.1351351 L31.2432432,16.1081081 L34.2702703,16.1081081 L34.2702703,19.1351351 L31.2432432,19.1351351 Z M31.2432432,22.1621622 L31.2432432,19.1351351 L34.2702703,19.1351351 L34.2702703,22.1621622 L31.2432432,22.1621622 Z M31.2432432,31.2432432 L31.2432432,28.2162162 L34.2702703,28.2162162 L34.2702703,31.2432432 L31.2432432,31.2432432 Z M31.2432432,37.2972973 L31.2432432,34.2702703 L34.2702703,34.2702703 L34.2702703,37.2972973 L31.2432432,37.2972973 Z M31.2432432,40.3243243 L31.2432432,37.2972973 L34.2702703,37.2972973 L34.2702703,40.3243243 L31.2432432,40.3243243 Z M31.2432432,55.4594595 L31.2432432,52.4324324 L34.2702703,52.4324324 L34.2702703,55.4594595 L31.2432432,55.4594595 Z M31.2432432,61.5135135 L31.2432432,58.4864865 L34.2702703,58.4864865 L34.2702703,61.5135135 L31.2432432,61.5135135 Z M31.2432432,70.5945946 L31.2432432,67.5675676 L34.2702703,67.5675676 L34.2702703,70.5945946 L31.2432432,70.5945946 Z M31.2432432,73.6216216 L31.2432432,70.5945946 L34.2702703,70.5945946 L34.2702703,73.6216216 L31.2432432,73.6216216 Z M31.2432432,76.6486486 L31.2432432,73.6216216 L34.2702703,73.6216216 L34.2702703,76.6486486 L31.2432432,76.6486486 Z M31.2432432,82.7027027 L31.2432432,79.6756757 L34.2702703,79.6756757 L34.2702703,82.7027027 L31.2432432,82.7027027 Z M31.2432432,88.7567568 L31.2432432,85.7297297 L34.2702703,85.7297297 L34.2702703,88.7567568 L31.2432432,88.7567568 Z M31.2432432,97.8378378 L31.2432432,94.8108108 L34.2702703,94.8108108 L34.2702703,97.8378378 L31.2432432,97.8378378 Z M31.2432432,106.918919 L31.2432432,103.891892 L34.2702703,103.891892 L34.2702703,106.918919 L31.2432432,106.918919 Z M31.2432432,109.945946 L31.2432432,106.918919 L34.2702703,106.918919 L34.2702703,109.945946 L31.2432432,109.945946 Z M31.2432432,116 L31.2432432,112.972973 L34.2702703,112.972973 L34.2702703,116 L31.2432432,116 Z M34.2702703,7.02702703 L34.2702703,4 L37.2972973,4 L37.2972973,7.02702703 L34.2702703,7.02702703 Z M34.2702703,13.0810811 L34.2702703,10.0540541 L37.2972973,10.0540541 L37.2972973,13.0810811 L34.2702703,13.0810811 Z M34.2702703,22.1621622 L34.2702703,19.1351351 L37.2972973,19.1351351 L37.2972973,22.1621622 L34.2702703,22.1621622 Z M34.2702703,25.1891892 L34.2702703,22.1621622 L37.2972973,22.1621622 L37.2972973,25.1891892 L34.2702703,25.1891892 Z M34.2702703,28.2162162 L34.2702703,25.1891892 L37.2972973,25.1891892 L37.2972973,28.2162162 L34.2702703,28.2162162 Z M34.2702703,31.2432432 L34.2702703,28.2162162 L37.2972973,28.2162162 L37.2972973,31.2432432 L34.2702703,31.2432432 Z M34.2702703,37.2972973 L34.2702703,34.2702703 L37.2972973,34.2702703 L37.2972973,37.2972973 L34.2702703,37.2972973 Z M34.2702703,40.3243243 L34.2702703,37.2972973 L37.2972973,37.2972973 L37.2972973,40.3243243 L34.2702703,40.3243243 Z M34.2702703,43.3513514 L34.2702703,40.3243243 L37.2972973,40.3243243 L37.2972973,43.3513514 L34.2702703,43.3513514 Z M34.2702703,46.3783784 L34.2702703,43.3513514 L37.2972973,43.3513514 L37.2972973,46.3783784 L34.2702703,46.3783784 Z M34.2702703,49.4054054 L34.2702703,46.3783784 L37.2972973,46.3783784 L37.2972973,49.4054054 L34.2702703,49.4054054 Z M34.2702703,55.4594595 L34.2702703,52.4324324 L37.2972973,52.4324324 L37.2972973,55.4594595 L34.2702703,55.4594595 Z M34.2702703,61.5135135 L34.2702703,58.4864865 L37.2972973,58.4864865 L37.2972973,61.5135135 L34.2702703,61.5135135 Z M34.2702703,64.5405405 L34.2702703,61.5135135 L37.2972973,61.5135135 L37.2972973,64.5405405 L34.2702703,64.5405405 Z M34.2702703,70.5945946 L34.2702703,67.5675676 L37.2972973,67.5675676 L37.2972973,70.5945946 L34.2702703,70.5945946 Z M34.2702703,73.6216216 L34.2702703,70.5945946 L37.2972973,70.5945946 L37.2972973,73.6216216 L34.2702703,73.6216216 Z M34.2702703,76.6486486 L34.2702703,73.6216216 L37.2972973,73.6216216 L37.2972973,76.6486486 L34.2702703,76.6486486 Z M34.2702703,79.6756757 L34.2702703,76.6486486 L37.2972973,76.6486486 L37.2972973,79.6756757 L34.2702703,79.6756757 Z M34.2702703,85.7297297 L34.2702703,82.7027027 L37.2972973,82.7027027 L37.2972973,85.7297297 L34.2702703,85.7297297 Z M34.2702703,88.7567568 L34.2702703,85.7297297 L37.2972973,85.7297297 L37.2972973,88.7567568 L34.2702703,88.7567568 Z M34.2702703,97.8378378 L34.2702703,94.8108108 L37.2972973,94.8108108 L37.2972973,97.8378378 L34.2702703,97.8378378 Z M34.2702703,100.864865 L34.2702703,97.8378378 L37.2972973,97.8378378 L37.2972973,100.864865 L34.2702703,100.864865 Z M34.2702703,103.891892 L34.2702703,100.864865 L37.2972973,100.864865 L37.2972973,103.891892 L34.2702703,103.891892 Z M34.2702703,106.918919 L34.2702703,103.891892 L37.2972973,103.891892 L37.2972973,106.918919 L34.2702703,106.918919 Z M34.2702703,109.945946 L34.2702703,106.918919 L37.2972973,106.918919 L37.2972973,109.945946 L34.2702703,109.945946 Z M34.2702703,116 L34.2702703,112.972973 L37.2972973,112.972973 L37.2972973,116 L34.2702703,116 Z M37.2972973,7.02702703 L37.2972973,4 L40.3243243,4 L40.3243243,7.02702703 L37.2972973,7.02702703 Z M37.2972973,13.0810811 L37.2972973,10.0540541 L40.3243243,10.0540541 L40.3243243,13.0810811 L37.2972973,13.0810811 Z M37.2972973,31.2432432 L37.2972973,28.2162162 L40.3243243,28.2162162 L40.3243243,31.2432432 L37.2972973,31.2432432 Z M37.2972973,34.2702703 L37.2972973,31.2432432 L40.3243243,31.2432432 L40.3243243,34.2702703 L37.2972973,34.2702703 Z M37.2972973,46.3783784 L37.2972973,43.3513514 L40.3243243,43.3513514 L40.3243243,46.3783784 L37.2972973,46.3783784 Z M37.2972973,52.4324324 L37.2972973,49.4054054 L40.3243243,49.4054054 L40.3243243,52.4324324 L37.2972973,52.4324324 Z M37.2972973,64.5405405 L37.2972973,61.5135135 L40.3243243,61.5135135 L40.3243243,64.5405405 L37.2972973,64.5405405 Z M37.2972973,67.5675676 L37.2972973,64.5405405 L40.3243243,64.5405405 L40.3243243,67.5675676 L37.2972973,67.5675676 Z M37.2972973,70.5945946 L37.2972973,67.5675676 L40.3243243,67.5675676 L40.3243243,70.5945946 L37.2972973,70.5945946 Z M37.2972973,73.6216216 L37.2972973,70.5945946 L40.3243243,70.5945946 L40.3243243,73.6216216 L37.2972973,73.6216216 Z M37.2972973,76.6486486 L37.2972973,73.6216216 L40.3243243,73.6216216 L40.3243243,76.6486486 L37.2972973,76.6486486 Z M37.2972973,79.6756757 L37.2972973,76.6486486 L40.3243243,76.6486486 L40.3243243,79.6756757 L37.2972973,79.6756757 Z M37.2972973,82.7027027 L37.2972973,79.6756757 L40.3243243,79.6756757 L40.3243243,82.7027027 L37.2972973,82.7027027 Z M37.2972973,94.8108108 L37.2972973,91.7837838 L40.3243243,91.7837838 L40.3243243,94.8108108 L37.2972973,94.8108108 Z M37.2972973,97.8378378 L37.2972973,94.8108108 L40.3243243,94.8108108 L40.3243243,97.8378378 L37.2972973,97.8378378 Z M37.2972973,100.864865 L37.2972973,97.8378378 L40.3243243,97.8378378 L40.3243243,100.864865 L37.2972973,100.864865 Z M37.2972973,112.972973 L37.2972973,109.945946 L40.3243243,109.945946 L40.3243243,112.972973 L37.2972973,112.972973 Z M37.2972973,116 L37.2972973,112.972973 L40.3243243,112.972973 L40.3243243,116 L37.2972973,116 Z M40.3243243,10.0540541 L40.3243243,7.02702703 L43.3513514,7.02702703 L43.3513514,10.0540541 L40.3243243,10.0540541 Z M40.3243243,16.1081081 L40.3243243,13.0810811 L43.3513514,13.0810811 L43.3513514,16.1081081 L40.3243243,16.1081081 Z M40.3243243,19.1351351 L40.3243243,16.1081081 L43.3513514,16.1081081 L43.3513514,19.1351351 L40.3243243,19.1351351 Z M40.3243243,25.1891892 L40.3243243,22.1621622 L43.3513514,22.1621622 L43.3513514,25.1891892 L40.3243243,25.1891892 Z M40.3243243,28.2162162 L40.3243243,25.1891892 L43.3513514,25.1891892 L43.3513514,28.2162162 L40.3243243,28.2162162 Z M40.3243243,31.2432432 L40.3243243,28.2162162 L43.3513514,28.2162162 L43.3513514,31.2432432 L40.3243243,31.2432432 Z M40.3243243,40.3243243 L40.3243243,37.2972973 L43.3513514,37.2972973 L43.3513514,40.3243243 L40.3243243,40.3243243 Z M40.3243243,43.3513514 L40.3243243,40.3243243 L43.3513514,40.3243243 L43.3513514,43.3513514 L40.3243243,43.3513514 Z M40.3243243,61.5135135 L40.3243243,58.4864865 L43.3513514,58.4864865 L43.3513514,61.5135135 L40.3243243,61.5135135 Z M40.3243243,67.5675676 L40.3243243,64.5405405 L43.3513514,64.5405405 L43.3513514,67.5675676 L40.3243243,67.5675676 Z M40.3243243,76.6486486 L40.3243243,73.6216216 L43.3513514,73.6216216 L43.3513514,76.6486486 L40.3243243,76.6486486 Z M40.3243243,79.6756757 L40.3243243,76.6486486 L43.3513514,76.6486486 L43.3513514,79.6756757 L40.3243243,79.6756757 Z M40.3243243,82.7027027 L40.3243243,79.6756757 L43.3513514,79.6756757 L43.3513514,82.7027027 L40.3243243,82.7027027 Z M40.3243243,85.7297297 L40.3243243,82.7027027 L43.3513514,82.7027027 L43.3513514,85.7297297 L40.3243243,85.7297297 Z M40.3243243,94.8108108 L40.3243243,91.7837838 L43.3513514,91.7837838 L43.3513514,94.8108108 L40.3243243,94.8108108 Z M40.3243243,103.891892 L40.3243243,100.864865 L43.3513514,100.864865 L43.3513514,103.891892 L40.3243243,103.891892 Z M40.3243243,109.945946 L40.3243243,106.918919 L43.3513514,106.918919 L43.3513514,109.945946 L40.3243243,109.945946 Z M40.3243243,112.972973 L40.3243243,109.945946 L43.3513514,109.945946 L43.3513514,112.972973 L40.3243243,112.972973 Z M43.3513514,19.1351351 L43.3513514,16.1081081 L46.3783784,16.1081081 L46.3783784,19.1351351 L43.3513514,19.1351351 Z M43.3513514,22.1621622 L43.3513514,19.1351351 L46.3783784,19.1351351 L46.3783784,22.1621622 L43.3513514,22.1621622 Z M43.3513514,28.2162162 L43.3513514,25.1891892 L46.3783784,25.1891892 L46.3783784,28.2162162 L43.3513514,28.2162162 Z M43.3513514,34.2702703 L43.3513514,31.2432432 L46.3783784,31.2432432 L46.3783784,34.2702703 L43.3513514,34.2702703 Z M43.3513514,37.2972973 L43.3513514,34.2702703 L46.3783784,34.2702703 L46.3783784,37.2972973 L43.3513514,37.2972973 Z M43.3513514,40.3243243 L43.3513514,37.2972973 L46.3783784,37.2972973 L46.3783784,40.3243243 L43.3513514,40.3243243 Z M43.3513514,43.3513514 L43.3513514,40.3243243 L46.3783784,40.3243243 L46.3783784,43.3513514 L43.3513514,43.3513514 Z M43.3513514,49.4054054 L43.3513514,46.3783784 L46.3783784,46.3783784 L46.3783784,49.4054054 L43.3513514,49.4054054 Z M43.3513514,55.4594595 L43.3513514,52.4324324 L46.3783784,52.4324324 L46.3783784,55.4594595 L43.3513514,55.4594595 Z M43.3513514,58.4864865 L43.3513514,55.4594595 L46.3783784,55.4594595 L46.3783784,58.4864865 L43.3513514,58.4864865 Z M43.3513514,61.5135135 L43.3513514,58.4864865 L46.3783784,58.4864865 L46.3783784,61.5135135 L43.3513514,61.5135135 Z M43.3513514,73.6216216 L43.3513514,70.5945946 L46.3783784,70.5945946 L46.3783784,73.6216216 L43.3513514,73.6216216 Z M43.3513514,85.7297297 L43.3513514,82.7027027 L46.3783784,82.7027027 L46.3783784,85.7297297 L43.3513514,85.7297297 Z M43.3513514,94.8108108 L43.3513514,91.7837838 L46.3783784,91.7837838 L46.3783784,94.8108108 L43.3513514,94.8108108 Z M43.3513514,100.864865 L43.3513514,97.8378378 L46.3783784,97.8378378 L46.3783784,100.864865 L43.3513514,100.864865 Z M43.3513514,103.891892 L43.3513514,100.864865 L46.3783784,100.864865 L46.3783784,103.891892 L43.3513514,103.891892 Z M43.3513514,112.972973 L43.3513514,109.945946 L46.3783784,109.945946 L46.3783784,112.972973 L43.3513514,112.972973 Z M43.3513514,116 L43.3513514,112.972973 L46.378,112.972973 L46.378,116 L43.3513514,116 Z M46.3783784,10.0540541 L46.3783784,7.02702703 L49.4054054,7.02702703 L49.4054054,10.0540541 L46.3783784,10.0540541 Z M46.3783784,16.1081081 L46.3783784,13.0810811 L49.4054054,13.0810811 L49.4054054,16.1081081 L46.3783784,16.1081081 Z M46.3783784,22.1621622 L46.3783784,19.1351351 L49.4054054,19.1351351 L49.4054054,22.1621622 L46.3783784,22.1621622 Z M46.3783784,25.1891892 L46.3783784,22.1621622 L49.4054054,22.1621622 L49.4054054,25.1891892 L46.3783784,25.1891892 Z M46.3783784,34.2702703 L46.3783784,31.2432432 L49.4054054,31.2432432 L49.4054054,34.2702703 L46.3783784,34.2702703 Z M46.3783784,40.3243243 L46.3783784,37.2972973 L49.4054054,37.2972973 L49.4054054,40.3243243 L46.3783784,40.3243243 Z M46.3783784,46.3783784 L46.3783784,43.3513514 L49.4054054,43.3513514 L49.4054054,46.3783784 L46.3783784,46.3783784 Z M46.3783784,49.4054054 L46.3783784,46.3783784 L49.4054054,46.3783784 L49.4054054,49.4054054 L46.3783784,49.4054054 Z M46.3783784,52.4324324 L46.3783784,49.4054054 L49.4054054,49.4054054 L49.4054054,52.4324324 L46.3783784,52.4324324 Z M46.3783784,55.4594595 L46.3783784,52.4324324 L49.4054054,52.4324324 L49.4054054,55.4594595 L46.3783784,55.4594595 Z M46.3783784,58.4864865 L46.3783784,55.4594595 L49.4054054,55.4594595 L49.4054054,58.4864865 L46.3783784,58.4864865 Z M46.3783784,67.5675676 L46.3783784,64.5405405 L49.4054054,64.5405405 L49.4054054,67.5675676 L46.3783784,67.5675676 Z M46.3783784,70.5945946 L46.3783784,67.5675676 L49.4054054,67.5675676 L49.4054054,70.5945946 L46.3783784,70.5945946 Z M46.3783784,76.6486486 L46.3783784,73.6216216 L49.4054054,73.6216216 L49.4054054,76.6486486 L46.3783784,76.6486486 Z M46.3783784,88.7567568 L46.3783784,85.7297297 L49.4054054,85.7297297 L49.4054054,88.7567568 L46.3783784,88.7567568 Z M46.3783784,91.7837838 L46.3783784,88.7567568 L49.4054054,88.7567568 L49.4054054,91.7837838 L46.3783784,91.7837838 Z M46.3783784,94.8108108 L46.3783784,91.7837838 L49.4054054,91.7837838 L49.4054054,94.8108108 L46.3783784,94.8108108 Z M46.3783784,97.8378378 L46.3783784,94.8108108 L49.4054054,94.8108108 L49.4054054,97.8378378 L46.3783784,97.8378378 Z M46.3783784,106.918919 L46.3783784,103.891892 L49.4054054,103.891892 L49.4054054,106.918919 L46.3783784,106.918919 Z M46.3783784,116 L46.3783784,112.972973 L49.4054054,112.972973 L49.4054054,116 L46.3783784,116 Z M49.4054054,10.0540541 L49.4054054,7.02702703 L52.4324324,7.02702703 L52.4324324,10.0540541 L49.4054054,10.0540541 Z M49.4054054,19.1351351 L49.4054054,16.1081081 L52.4324324,16.1081081 L52.4324324,19.1351351 L49.4054054,19.1351351 Z M49.4054054,22.1621622 L49.4054054,19.1351351 L52.4324324,19.1351351 L52.4324324,22.1621622 L49.4054054,22.1621622 Z M49.4054054,28.2162162 L49.4054054,25.1891892 L52.4324324,25.1891892 L52.4324324,28.2162162 L49.4054054,28.2162162 Z M49.4054054,31.2432432 L49.4054054,28.2162162 L52.4324324,28.2162162 L52.4324324,31.2432432 L49.4054054,31.2432432 Z M49.4054054,37.2972973 L49.4054054,34.2702703 L52.4324324,34.2702703 L52.4324324,37.2972973 L49.4054054,37.2972973 Z M49.4054054,40.3243243 L49.4054054,37.2972973 L52.4324324,37.2972973 L52.4324324,40.3243243 L49.4054054,40.3243243 Z M49.4054054,43.3513514 L49.4054054,40.3243243 L52.4324324,40.3243243 L52.4324324,43.3513514 L49.4054054,43.3513514 Z M49.4054054,46.3783784 L49.4054054,43.3513514 L52.4324324,43.3513514 L52.4324324,46.3783784 L49.4054054,46.3783784 Z M49.4054054,49.4054054 L49.4054054,46.3783784 L52.4324324,46.3783784 L52.4324324,49.4054054 L49.4054054,49.4054054 Z M49.4054054,55.4594595 L49.4054054,52.4324324 L52.4324324,52.4324324 L52.4324324,55.4594595 L49.4054054,55.4594595 Z M49.4054054,58.4864865 L49.4054054,55.4594595 L52.4324324,55.4594595 L52.4324324,58.4864865 L49.4054054,58.4864865 Z M49.4054054,64.5405405 L49.4054054,61.5135135 L52.4324324,61.5135135 L52.4324324,64.5405405 L49.4054054,64.5405405 Z M49.4054054,67.5675676 L49.4054054,64.5405405 L52.4324324,64.5405405 L52.4324324,67.5675676 L49.4054054,67.5675676 Z M49.4054054,70.5945946 L49.4054054,67.5675676 L52.4324324,67.5675676 L52.4324324,70.5945946 L49.4054054,70.5945946 Z M49.4054054,76.6486486 L49.4054054,73.6216216 L52.4324324,73.6216216 L52.4324324,76.6486486 L49.4054054,76.6486486 Z M49.4054054,85.7297297 L49.4054054,82.7027027 L52.4324324,82.7027027 L52.4324324,85.7297297 L49.4054054,85.7297297 Z M49.4054054,88.7567568 L49.4054054,85.7297297 L52.4324324,85.7297297 L52.4324324,88.7567568 L49.4054054,88.7567568 Z M49.4054054,94.8108108 L49.4054054,91.7837838 L52.4324324,91.7837838 L52.4324324,94.8108108 L49.4054054,94.8108108 Z M49.4054054,100.864865 L49.4054054,97.8378378 L52.4324324,97.8378378 L52.4324324,100.864865 L49.4054054,100.864865 Z M49.4054054,103.891892 L49.4054054,100.864865 L52.4324324,100.864865 L52.4324324,103.891892 L49.4054054,103.891892 Z M49.4054054,112.972973 L49.4054054,109.945946 L52.4324324,109.945946 L52.4324324,112.972973 L49.4054054,112.972973 Z M52.4324324,7.02702703 L52.4324324,4 L55.4594595,4 L55.4594595,7.02702703 L52.4324324,7.02702703 Z M52.4324324,13.0810811 L52.4324324,10.0540541 L55.4594595,10.0540541 L55.4594595,13.0810811 L52.4324324,13.0810811 Z M52.4324324,19.1351351 L52.4324324,16.1081081 L55.4594595,16.1081081 L55.4594595,19.1351351 L52.4324324,19.1351351 Z M52.4324324,25.1891892 L52.4324324,22.1621622 L55.4594595,22.1621622 L55.4594595,25.1891892 L52.4324324,25.1891892 Z M52.4324324,28.2162162 L52.4324324,25.1891892 L55.4594595,25.1891892 L55.4594595,28.2162162 L52.4324324,28.2162162 Z M52.4324324,34.2702703 L52.4324324,31.2432432 L55.4594595,31.2432432 L55.4594595,34.2702703 L52.4324324,34.2702703 Z M52.4324324,43.3513514 L52.4324324,40.3243243 L55.4594595,40.3243243 L55.4594595,43.3513514 L52.4324324,43.3513514 Z M52.4324324,46.3783784 L52.4324324,43.3513514 L55.4594595,43.3513514 L55.4594595,46.3783784 L52.4324324,46.3783784 Z M52.4324324,61.5135135 L52.4324324,58.4864865 L55.4594595,58.4864865 L55.4594595,61.5135135 L52.4324324,61.5135135 Z M52.4324324,73.6216216 L52.4324324,70.5945946 L55.4594595,70.5945946 L55.4594595,73.6216216 L52.4324324,73.6216216 Z M52.4324324,79.6756757 L52.4324324,76.6486486 L55.4594595,76.6486486 L55.4594595,79.6756757 L52.4324324,79.6756757 Z M52.4324324,82.7027027 L52.4324324,79.6756757 L55.4594595,79.6756757 L55.4594595,82.7027027 L52.4324324,82.7027027 Z M52.4324324,85.7297297 L52.4324324,82.7027027 L55.4594595,82.7027027 L55.4594595,85.7297297 L52.4324324,85.7297297 Z M52.4324324,88.7567568 L52.4324324,85.7297297 L55.4594595,85.7297297 L55.4594595,88.7567568 L52.4324324,88.7567568 Z M52.4324324,91.7837838 L52.4324324,88.7567568 L55.4594595,88.7567568 L55.4594595,91.7837838 L52.4324324,91.7837838 Z M52.4324324,94.8108108 L52.4324324,91.7837838 L55.4594595,91.7837838 L55.4594595,94.8108108 L52.4324324,94.8108108 Z M52.4324324,116 L52.4324324,112.972973 L55.4594595,112.972973 L55.4594595,116 L52.4324324,116 Z M55.4594595,7.02702703 L55.4594595,4 L58.4864865,4 L58.4864865,7.02702703 L55.4594595,7.02702703 Z M55.4594595,10.0540541 L55.4594595,7.02702703 L58.4864865,7.02702703 L58.4864865,10.0540541 L55.4594595,10.0540541 Z M55.4594595,13.0810811 L55.4594595,10.0540541 L58.4864865,10.0540541 L58.4864865,13.0810811 L55.4594595,13.0810811 Z M55.4594595,19.1351351 L55.4594595,16.1081081 L58.4864865,16.1081081 L58.4864865,19.1351351 L55.4594595,19.1351351 Z M55.4594595,28.2162162 L55.4594595,25.1891892 L58.4864865,25.1891892 L58.4864865,28.2162162 L55.4594595,28.2162162 Z M55.4594595,31.2432432 L55.4594595,28.2162162 L58.4864865,28.2162162 L58.4864865,31.2432432 L55.4594595,31.2432432 Z M55.4594595,55.4594595 L55.4594595,52.4324324 L58.4864865,52.4324324 L58.4864865,55.4594595 L55.4594595,55.4594595 Z M55.4594595,58.4864865 L55.4594595,55.4594595 L58.4864865,55.4594595 L58.4864865,58.4864865 L55.4594595,58.4864865 Z M55.4594595,61.5135135 L55.4594595,58.4864865 L58.4864865,58.4864865 L58.4864865,61.5135135 L55.4594595,61.5135135 Z M55.4594595,64.5405405 L55.4594595,61.5135135 L58.4864865,61.5135135 L58.4864865,64.5405405 L55.4594595,64.5405405 Z M55.4594595,67.5675676 L55.4594595,64.5405405 L58.4864865,64.5405405 L58.4864865,67.5675676 L55.4594595,67.5675676 Z M55.4594595,70.5945946 L55.4594595,67.5675676 L58.4864865,67.5675676 L58.4864865,70.5945946 L55.4594595,70.5945946 Z M55.4594595,82.7027027 L55.4594595,79.6756757 L58.4864865,79.6756757 L58.4864865,82.7027027 L55.4594595,82.7027027 Z M55.4594595,85.7297297 L55.4594595,82.7027027 L58.4864865,82.7027027 L58.4864865,85.7297297 L55.4594595,85.7297297 Z M55.4594595,91.7837838 L55.4594595,88.7567568 L58.4864865,88.7567568 L58.4864865,91.7837838 L55.4594595,91.7837838 Z M55.4594595,94.8108108 L55.4594595,91.7837838 L58.4864865,91.7837838 L58.4864865,94.8108108 L55.4594595,94.8108108 Z M55.4594595,97.8378378 L55.4594595,94.8108108 L58.4864865,94.8108108 L58.4864865,97.8378378 L55.4594595,97.8378378 Z M55.4594595,100.864865 L55.4594595,97.8378378 L58.4864865,97.8378378 L58.4864865,100.864865 L55.4594595,100.864865 Z M55.4594595,106.918919 L55.4594595,103.891892 L58.4864865,103.891892 L58.4864865,106.918919 L55.4594595,106.918919 Z M55.4594595,112.972973 L55.4594595,109.945946 L58.4864865,109.945946 L58.4864865,112.972973 L55.4594595,112.972973 Z M58.4864865,13.0810811 L58.4864865,10.0540541 L61.5135135,10.0540541 L61.5135135,13.0810811 L58.4864865,13.0810811 Z M58.4864865,25.1891892 L58.4864865,22.1621622 L61.5135135,22.1621622 L61.5135135,25.1891892 L58.4864865,25.1891892 Z M58.4864865,31.2432432 L58.4864865,28.2162162 L61.5135135,28.2162162 L61.5135135,31.2432432 L58.4864865,31.2432432 Z M58.4864865,49.4054054 L58.4864865,46.3783784 L61.5135135,46.3783784 L61.5135135,49.4054054 L58.4864865,49.4054054 Z M58.4864865,52.4324324 L58.4864865,49.4054054 L61.5135135,49.4054054 L61.5135135,52.4324324 L58.4864865,52.4324324 Z M58.4864865,70.5945946 L58.4864865,67.5675676 L61.5135135,67.5675676 L61.5135135,70.5945946 L58.4864865,70.5945946 Z M58.4864865,73.6216216 L58.4864865,70.5945946 L61.5135135,70.5945946 L61.5135135,73.6216216 L58.4864865,73.6216216 Z M58.4864865,79.6756757 L58.4864865,76.6486486 L61.5135135,76.6486486 L61.5135135,79.6756757 L58.4864865,79.6756757 Z M58.4864865,88.7567568 L58.4864865,85.7297297 L61.5135135,85.7297297 L61.5135135,88.7567568 L58.4864865,88.7567568 Z M58.4864865,94.8108108 L58.4864865,91.7837838 L61.5135135,91.7837838 L61.5135135,94.8108108 L58.4864865,94.8108108 Z M58.4864865,100.864865 L58.4864865,97.8378378 L61.5135135,97.8378378 L61.5135135,100.864865 L58.4864865,100.864865 Z M58.4864865,109.945946 L58.4864865,106.918919 L61.5135135,106.918919 L61.5135135,109.945946 L58.4864865,109.945946 Z M58.4864865,116 L58.4864865,112.972973 L61.5135135,112.972973 L61.5135135,116 L58.4864865,116 Z M61.5135135,13.0810811 L61.5135135,10.0540541 L64.5405405,10.0540541 L64.5405405,13.0810811 L61.5135135,13.0810811 Z M61.5135135,16.1081081 L61.5135135,13.0810811 L64.5405405,13.0810811 L64.5405405,16.1081081 L61.5135135,16.1081081 Z M61.5135135,19.1351351 L61.5135135,16.1081081 L64.5405405,16.1081081 L64.5405405,19.1351351 L61.5135135,19.1351351 Z M61.5135135,22.1621622 L61.5135135,19.1351351 L64.5405405,19.1351351 L64.5405405,22.1621622 L61.5135135,22.1621622 Z M61.5135135,28.2162162 L61.5135135,25.1891892 L64.5405405,25.1891892 L64.5405405,28.2162162 L61.5135135,28.2162162 Z M61.5135135,31.2432432 L61.5135135,28.2162162 L64.5405405,28.2162162 L64.5405405,31.2432432 L61.5135135,31.2432432 Z M61.5135135,34.2702703 L61.5135135,31.2432432 L64.5405405,31.2432432 L64.5405405,34.2702703 L61.5135135,34.2702703 Z M61.5135135,37.2972973 L61.5135135,34.2702703 L64.5405405,34.2702703 L64.5405405,37.2972973 L61.5135135,37.2972973 Z M61.5135135,40.3243243 L61.5135135,37.2972973 L64.5405405,37.2972973 L64.5405405,40.3243243 L61.5135135,40.3243243 Z M61.5135135,43.3513514 L61.5135135,40.3243243 L64.5405405,40.3243243 L64.5405405,43.3513514 L61.5135135,43.3513514 Z M61.5135135,52.4324324 L61.5135135,49.4054054 L64.5405405,49.4054054 L64.5405405,52.4324324 L61.5135135,52.4324324 Z M61.5135135,55.4594595 L61.5135135,52.4324324 L64.5405405,52.4324324 L64.5405405,55.4594595 L61.5135135,55.4594595 Z M61.5135135,61.5135135 L61.5135135,58.4864865 L64.5405405,58.4864865 L64.5405405,61.5135135 L61.5135135,61.5135135 Z M61.5135135,64.5405405 L61.5135135,61.5135135 L64.5405405,61.5135135 L64.5405405,64.5405405 L61.5135135,64.5405405 Z M61.5135135,70.5945946 L61.5135135,67.5675676 L64.5405405,67.5675676 L64.5405405,70.5945946 L61.5135135,70.5945946 Z M61.5135135,76.6486486 L61.5135135,73.6216216 L64.5405405,73.6216216 L64.5405405,76.6486486 L61.5135135,76.6486486 Z M61.5135135,85.7297297 L61.5135135,82.7027027 L64.5405405,82.7027027 L64.5405405,85.7297297 L61.5135135,85.7297297 Z M61.5135135,91.7837838 L61.5135135,88.7567568 L64.5405405,88.7567568 L64.5405405,91.7837838 L61.5135135,91.7837838 Z M61.5135135,97.8378378 L61.5135135,94.8108108 L64.5405405,94.8108108 L64.5405405,97.8378378 L61.5135135,97.8378378 Z M61.5135135,103.891892 L61.5135135,100.864865 L64.5405405,100.864865 L64.5405405,103.891892 L61.5135135,103.891892 Z M61.5135135,106.918919 L61.5135135,103.891892 L64.5405405,103.891892 L64.5405405,106.918919 L61.5135135,106.918919 Z M61.5135135,109.945946 L61.5135135,106.918919 L64.5405405,106.918919 L64.5405405,109.945946 L61.5135135,109.945946 Z M64.5405405,7.02702703 L64.5405405,4 L67.5675676,4 L67.5675676,7.02702703 L64.5405405,7.02702703 Z M64.5405405,10.0540541 L64.5405405,7.02702703 L67.5675676,7.02702703 L67.5675676,10.0540541 L64.5405405,10.0540541 Z M64.5405405,22.1621622 L64.5405405,19.1351351 L67.5675676,19.1351351 L67.5675676,22.1621622 L64.5405405,22.1621622 Z M64.5405405,25.1891892 L64.5405405,22.1621622 L67.5675676,22.1621622 L67.5675676,25.1891892 L64.5405405,25.1891892 Z M64.5405405,28.2162162 L64.5405405,25.1891892 L67.5675676,25.1891892 L67.5675676,28.2162162 L64.5405405,28.2162162 Z M64.5405405,31.2432432 L64.5405405,28.2162162 L67.5675676,28.2162162 L67.5675676,31.2432432 L64.5405405,31.2432432 Z M64.5405405,34.2702703 L64.5405405,31.2432432 L67.5675676,31.2432432 L67.5675676,34.2702703 L64.5405405,34.2702703 Z M64.5405405,40.3243243 L64.5405405,37.2972973 L67.5675676,37.2972973 L67.5675676,40.3243243 L64.5405405,40.3243243 Z M64.5405405,43.3513514 L64.5405405,40.3243243 L67.5675676,40.3243243 L67.5675676,43.3513514 L64.5405405,43.3513514 Z M64.5405405,52.4324324 L64.5405405,49.4054054 L67.5675676,49.4054054 L67.5675676,52.4324324 L64.5405405,52.4324324 Z M64.5405405,55.4594595 L64.5405405,52.4324324 L67.5675676,52.4324324 L67.5675676,55.4594595 L64.5405405,55.4594595 Z M64.5405405,58.4864865 L64.5405405,55.4594595 L67.5675676,55.4594595 L67.5675676,58.4864865 L64.5405405,58.4864865 Z M64.5405405,61.5135135 L64.5405405,58.4864865 L67.5675676,58.4864865 L67.5675676,61.5135135 L64.5405405,61.5135135 Z M64.5405405,64.5405405 L64.5405405,61.5135135 L67.5675676,61.5135135 L67.5675676,64.5405405 L64.5405405,64.5405405 Z M64.5405405,67.5675676 L64.5405405,64.5405405 L67.5675676,64.5405405 L67.5675676,67.5675676 L64.5405405,67.5675676 Z M64.5405405,73.6216216 L64.5405405,70.5945946 L67.5675676,70.5945946 L67.5675676,73.6216216 L64.5405405,73.6216216 Z M64.5405405,76.6486486 L64.5405405,73.6216216 L67.5675676,73.6216216 L67.5675676,76.6486486 L64.5405405,76.6486486 Z M64.5405405,91.7837838 L64.5405405,88.7567568 L67.5675676,88.7567568 L67.5675676,91.7837838 L64.5405405,91.7837838 Z M64.5405405,97.8378378 L64.5405405,94.8108108 L67.5675676,94.8108108 L67.5675676,97.8378378 L64.5405405,97.8378378 Z M64.5405405,100.864865 L64.5405405,97.8378378 L67.5675676,97.8378378 L67.5675676,100.864865 L64.5405405,100.864865 Z M64.5405405,103.891892 L64.5405405,100.864865 L67.5675676,100.864865 L67.5675676,103.891892 L64.5405405,103.891892 Z M64.5405405,106.918919 L64.5405405,103.891892 L67.5675676,103.891892 L67.5675676,106.918919 L64.5405405,106.918919 Z M64.5405405,109.945946 L64.5405405,106.918919 L67.5675676,106.918919 L67.5675676,109.945946 L64.5405405,109.945946 Z M64.5405405,112.972973 L64.5405405,109.945946 L67.5675676,109.945946 L67.5675676,112.972973 L64.5405405,112.972973 Z M67.5675676,7.02702703 L67.5675676,4 L70.5945946,4 L70.5945946,7.02702703 L67.5675676,7.02702703 Z M67.5675676,22.1621622 L67.5675676,19.1351351 L70.5945946,19.1351351 L70.5945946,22.1621622 L67.5675676,22.1621622 Z M67.5675676,28.2162162 L67.5675676,25.1891892 L70.5945946,25.1891892 L70.5945946,28.2162162 L67.5675676,28.2162162 Z M67.5675676,40.3243243 L67.5675676,37.2972973 L70.5945946,37.2972973 L70.5945946,40.3243243 L67.5675676,40.3243243 Z M67.5675676,46.3783784 L67.5675676,43.3513514 L70.5945946,43.3513514 L70.5945946,46.3783784 L67.5675676,46.3783784 Z M67.5675676,52.4324324 L67.5675676,49.4054054 L70.5945946,49.4054054 L70.5945946,52.4324324 L67.5675676,52.4324324 Z M67.5675676,55.4594595 L67.5675676,52.4324324 L70.5945946,52.4324324 L70.5945946,55.4594595 L67.5675676,55.4594595 Z M67.5675676,58.4864865 L67.5675676,55.4594595 L70.5945946,55.4594595 L70.5945946,58.4864865 L67.5675676,58.4864865 Z M67.5675676,64.5405405 L67.5675676,61.5135135 L70.5945946,61.5135135 L70.5945946,64.5405405 L67.5675676,64.5405405 Z M67.5675676,67.5675676 L67.5675676,64.5405405 L70.5945946,64.5405405 L70.5945946,67.5675676 L67.5675676,67.5675676 Z M67.5675676,73.6216216 L67.5675676,70.5945946 L70.5945946,70.5945946 L70.5945946,73.6216216 L67.5675676,73.6216216 Z M67.5675676,76.6486486 L67.5675676,73.6216216 L70.5945946,73.6216216 L70.5945946,76.6486486 L67.5675676,76.6486486 Z M67.5675676,79.6756757 L67.5675676,76.6486486 L70.5945946,76.6486486 L70.5945946,79.6756757 L67.5675676,79.6756757 Z M67.5675676,82.7027027 L67.5675676,79.6756757 L70.5945946,79.6756757 L70.5945946,82.7027027 L67.5675676,82.7027027 Z M67.5675676,85.7297297 L67.5675676,82.7027027 L70.5945946,82.7027027 L70.5945946,85.7297297 L67.5675676,85.7297297 Z M67.5675676,88.7567568 L67.5675676,85.7297297 L70.5945946,85.7297297 L70.5945946,88.7567568 L67.5675676,88.7567568 Z M67.5675676,91.7837838 L67.5675676,88.7567568 L70.5945946,88.7567568 L70.5945946,91.7837838 L67.5675676,91.7837838 Z M67.5675676,94.8108108 L67.5675676,91.7837838 L70.5945946,91.7837838 L70.5945946,94.8108108 L67.5675676,94.8108108 Z M67.5675676,97.8378378 L67.5675676,94.8108108 L70.5945946,94.8108108 L70.5945946,97.8378378 L67.5675676,97.8378378 Z M67.5675676,100.864865 L67.5675676,97.8378378 L70.5945946,97.8378378 L70.5945946,100.864865 L67.5675676,100.864865 Z M67.5675676,106.918919 L67.5675676,103.891892 L70.5945946,103.891892 L70.5945946,106.918919 L67.5675676,106.918919 Z M67.5675676,109.945946 L67.5675676,106.918919 L70.5945946,106.918919 L70.5945946,109.945946 L67.5675676,109.945946 Z M67.5675676,112.972973 L67.5675676,109.945946 L70.5945946,109.945946 L70.5945946,112.972973 L67.5675676,112.972973 Z M67.5675676,116 L67.5675676,112.972973 L70.5945946,112.972973 L70.5945946,116 L67.5675676,116 Z M70.5945946,7.02702703 L70.5945946,4 L73.6212432,4 L73.6212432,7.02702703 L70.5945946,7.02702703 Z M70.5945946,13.0810811 L70.5945946,10.0540541 L73.6216216,10.0540541 L73.6216216,13.0810811 L70.5945946,13.0810811 Z M70.5945946,16.1081081 L70.5945946,13.0810811 L73.6216216,13.0810811 L73.6216216,16.1081081 L70.5945946,16.1081081 Z M70.5945946,19.1351351 L70.5945946,16.1081081 L73.6216216,16.1081081 L73.6216216,19.1351351 L70.5945946,19.1351351 Z M70.5945946,22.1621622 L70.5945946,19.1351351 L73.6216216,19.1351351 L73.6216216,22.1621622 L70.5945946,22.1621622 Z M70.5945946,25.1891892 L70.5945946,22.1621622 L73.6216216,22.1621622 L73.6216216,25.1891892 L70.5945946,25.1891892 Z M70.5945946,28.2162162 L70.5945946,25.1891892 L73.6216216,25.1891892 L73.6216216,28.2162162 L70.5945946,28.2162162 Z M70.5945946,34.2702703 L70.5945946,31.2432432 L73.6216216,31.2432432 L73.6216216,34.2702703 L70.5945946,34.2702703 Z M70.5945946,37.2972973 L70.5945946,34.2702703 L73.6216216,34.2702703 L73.6216216,37.2972973 L70.5945946,37.2972973 Z M70.5945946,40.3243243 L70.5945946,37.2972973 L73.6216216,37.2972973 L73.6216216,40.3243243 L70.5945946,40.3243243 Z M70.5945946,43.3513514 L70.5945946,40.3243243 L73.6216216,40.3243243 L73.6216216,43.3513514 L70.5945946,43.3513514 Z M70.5945946,46.3783784 L70.5945946,43.3513514 L73.6216216,43.3513514 L73.6216216,46.3783784 L70.5945946,46.3783784 Z M70.5945946,49.4054054 L70.5945946,46.3783784 L73.6216216,46.3783784 L73.6216216,49.4054054 L70.5945946,49.4054054 Z M70.5945946,55.4594595 L70.5945946,52.4324324 L73.6216216,52.4324324 L73.6216216,55.4594595 L70.5945946,55.4594595 Z M70.5945946,58.4864865 L70.5945946,55.4594595 L73.6216216,55.4594595 L73.6216216,58.4864865 L70.5945946,58.4864865 Z M70.5945946,64.5405405 L70.5945946,61.5135135 L73.6216216,61.5135135 L73.6216216,64.5405405 L70.5945946,64.5405405 Z M70.5945946,67.5675676 L70.5945946,64.5405405 L73.6216216,64.5405405 L73.6216216,67.5675676 L70.5945946,67.5675676 Z M70.5945946,70.5945946 L70.5945946,67.5675676 L73.6216216,67.5675676 L73.6216216,70.5945946 L70.5945946,70.5945946 Z M70.5945946,76.6486486 L70.5945946,73.6216216 L73.6216216,73.6216216 L73.6216216,76.6486486 L70.5945946,76.6486486 Z M70.5945946,79.6756757 L70.5945946,76.6486486 L73.6216216,76.6486486 L73.6216216,79.6756757 L70.5945946,79.6756757 Z M70.5945946,91.7837838 L70.5945946,88.7567568 L73.6216216,88.7567568 L73.6216216,91.7837838 L70.5945946,91.7837838 Z M70.5945946,94.8108108 L70.5945946,91.7837838 L73.6216216,91.7837838 L73.6216216,94.8108108 L70.5945946,94.8108108 Z M70.5945946,103.891892 L70.5945946,100.864865 L73.6216216,100.864865 L73.6216216,103.891892 L70.5945946,103.891892 Z M70.5945946,109.945946 L70.5945946,106.918919 L73.6216216,106.918919 L73.6216216,109.945946 L70.5945946,109.945946 Z M73.6216216,7.02702703 L73.6216216,4 L76.6486486,4 L76.6486486,7.02702703 L73.6216216,7.02702703 Z M73.6216216,13.0810811 L73.6216216,10.0540541 L76.6486486,10.0540541 L76.6486486,13.0810811 L73.6216216,13.0810811 Z M73.6216216,16.1081081 L73.6216216,13.0810811 L76.6486486,13.0810811 L76.6486486,16.1081081 L73.6216216,16.1081081 Z M73.6216216,19.1351351 L73.6216216,16.1081081 L76.6486486,16.1081081 L76.6486486,19.1351351 L73.6216216,19.1351351 Z M73.6216216,28.2162162 L73.6216216,25.1891892 L76.6486486,25.1891892 L76.6486486,28.2162162 L73.6216216,28.2162162 Z M73.6216216,37.2972973 L73.6216216,34.2702703 L76.6486486,34.2702703 L76.6486486,37.2972973 L73.6216216,37.2972973 Z M73.6216216,43.3513514 L73.6216216,40.3243243 L76.6486486,40.3243243 L76.6486486,43.3513514 L73.6216216,43.3513514 Z M73.6216216,49.4054054 L73.6216216,46.3783784 L76.6486486,46.3783784 L76.6486486,49.4054054 L73.6216216,49.4054054 Z M73.6216216,52.4324324 L73.6216216,49.4054054 L76.6486486,49.4054054 L76.6486486,52.4324324 L73.6216216,52.4324324 Z M73.6216216,55.4594595 L73.6216216,52.4324324 L76.6486486,52.4324324 L76.6486486,55.4594595 L73.6216216,55.4594595 Z M73.6216216,64.5405405 L73.6216216,61.5135135 L76.6486486,61.5135135 L76.6486486,64.5405405 L73.6216216,64.5405405 Z M73.6216216,67.5675676 L73.6216216,64.5405405 L76.6486486,64.5405405 L76.6486486,67.5675676 L73.6216216,67.5675676 Z M73.6216216,70.5945946 L73.6216216,67.5675676 L76.6486486,67.5675676 L76.6486486,70.5945946 L73.6216216,70.5945946 Z M73.6216216,85.7297297 L73.6216216,82.7027027 L76.6486486,82.7027027 L76.6486486,85.7297297 L73.6216216,85.7297297 Z M73.6216216,88.7567568 L73.6216216,85.7297297 L76.6486486,85.7297297 L76.6486486,88.7567568 L73.6216216,88.7567568 Z M73.6216216,91.7837838 L73.6216216,88.7567568 L76.6486486,88.7567568 L76.6486486,91.7837838 L73.6216216,91.7837838 Z M73.6216216,94.8108108 L73.6216216,91.7837838 L76.6486486,91.7837838 L76.6486486,94.8108108 L73.6216216,94.8108108 Z M73.6216216,112.972973 L73.6216216,109.945946 L76.6486486,109.945946 L76.6486486,112.972973 L73.6216216,112.972973 Z M76.6486486,13.0810811 L76.6486486,10.0540541 L79.6756757,10.0540541 L79.6756757,13.0810811 L76.6486486,13.0810811 Z M76.6486486,25.1891892 L76.6486486,22.1621622 L79.6756757,22.1621622 L79.6756757,25.1891892 L76.6486486,25.1891892 Z M76.6486486,34.2702703 L76.6486486,31.2432432 L79.6756757,31.2432432 L79.6756757,34.2702703 L76.6486486,34.2702703 Z M76.6486486,37.2972973 L76.6486486,34.2702703 L79.6756757,34.2702703 L79.6756757,37.2972973 L76.6486486,37.2972973 Z M76.6486486,40.3243243 L76.6486486,37.2972973 L79.6756757,37.2972973 L79.6756757,40.3243243 L76.6486486,40.3243243 Z M76.6486486,43.3513514 L76.6486486,40.3243243 L79.6756757,40.3243243 L79.6756757,43.3513514 L76.6486486,43.3513514 Z M76.6486486,49.4054054 L76.6486486,46.3783784 L79.6756757,46.3783784 L79.6756757,49.4054054 L76.6486486,49.4054054 Z M76.6486486,55.4594595 L76.6486486,52.4324324 L79.6756757,52.4324324 L79.6756757,55.4594595 L76.6486486,55.4594595 Z M76.6486486,64.5405405 L76.6486486,61.5135135 L79.6756757,61.5135135 L79.6756757,64.5405405 L76.6486486,64.5405405 Z M76.6486486,70.5945946 L76.6486486,67.5675676 L79.6756757,67.5675676 L79.6756757,70.5945946 L76.6486486,70.5945946 Z M76.6486486,76.6486486 L76.6486486,73.6216216 L79.6756757,73.6216216 L79.6756757,76.6486486 L76.6486486,76.6486486 Z M76.6486486,79.6756757 L76.6486486,76.6486486 L79.6756757,76.6486486 L79.6756757,79.6756757 L76.6486486,79.6756757 Z M76.6486486,85.7297297 L76.6486486,82.7027027 L79.6756757,82.7027027 L79.6756757,85.7297297 L76.6486486,85.7297297 Z M76.6486486,103.891892 L76.6486486,100.864865 L79.6756757,100.864865 L79.6756757,103.891892 L76.6486486,103.891892 Z M76.6486486,106.918919 L76.6486486,103.891892 L79.6756757,103.891892 L79.6756757,106.918919 L76.6486486,106.918919 Z M76.6486486,116 L76.6486486,112.972973 L79.6756757,112.972973 L79.6756757,116 L76.6486486,116 Z M79.6756757,7.02702703 L79.6756757,4 L82.7027027,4 L82.7027027,7.02702703 L79.6756757,7.02702703 Z M79.6756757,16.1081081 L79.6756757,13.0810811 L82.7027027,13.0810811 L82.7027027,16.1081081 L79.6756757,16.1081081 Z M79.6756757,19.1351351 L79.6756757,16.1081081 L82.7027027,16.1081081 L82.7027027,19.1351351 L79.6756757,19.1351351 Z M79.6756757,31.2432432 L79.6756757,28.2162162 L82.7027027,28.2162162 L82.7027027,31.2432432 L79.6756757,31.2432432 Z M79.6756757,37.2972973 L79.6756757,34.2702703 L82.7027027,34.2702703 L82.7027027,37.2972973 L79.6756757,37.2972973 Z M79.6756757,43.3513514 L79.6756757,40.3243243 L82.7027027,40.3243243 L82.7027027,43.3513514 L79.6756757,43.3513514 Z M79.6756757,55.4594595 L79.6756757,52.4324324 L82.7027027,52.4324324 L82.7027027,55.4594595 L79.6756757,55.4594595 Z M79.6756757,58.4864865 L79.6756757,55.4594595 L82.7027027,55.4594595 L82.7027027,58.4864865 L79.6756757,58.4864865 Z M79.6756757,61.5135135 L79.6756757,58.4864865 L82.7027027,58.4864865 L82.7027027,61.5135135 L79.6756757,61.5135135 Z M79.6756757,67.5675676 L79.6756757,64.5405405 L82.7027027,64.5405405 L82.7027027,67.5675676 L79.6756757,67.5675676 Z M79.6756757,73.6216216 L79.6756757,70.5945946 L82.7027027,70.5945946 L82.7027027,73.6216216 L79.6756757,73.6216216 Z M79.6756757,79.6756757 L79.6756757,76.6486486 L82.7027027,76.6486486 L82.7027027,79.6756757 L79.6756757,79.6756757 Z M79.6756757,85.7297297 L79.6756757,82.7027027 L82.7027027,82.7027027 L82.7027027,85.7297297 L79.6756757,85.7297297 Z M79.6756757,91.7837838 L79.6756757,88.7567568 L82.7027027,88.7567568 L82.7027027,91.7837838 L79.6756757,91.7837838 Z M79.6756757,94.8108108 L79.6756757,91.7837838 L82.7027027,91.7837838 L82.7027027,94.8108108 L79.6756757,94.8108108 Z M79.6756757,97.8378378 L79.6756757,94.8108108 L82.7027027,94.8108108 L82.7027027,97.8378378 L79.6756757,97.8378378 Z M79.6756757,103.891892 L79.6756757,100.864865 L82.7027027,100.864865 L82.7027027,103.891892 L79.6756757,103.891892 Z M79.6756757,116 L79.6756757,112.972973 L82.7027027,112.972973 L82.7027027,116 L79.6756757,116 Z M82.7027027,7.02702703 L82.7027027,4 L85.7297297,4 L85.7297297,7.02702703 L82.7027027,7.02702703 Z M82.7027027,13.0810811 L82.7027027,10.0540541 L85.7297297,10.0540541 L85.7297297,13.0810811 L82.7027027,13.0810811 Z M82.7027027,16.1081081 L82.7027027,13.0810811 L85.7297297,13.0810811 L85.7297297,16.1081081 L82.7027027,16.1081081 Z M82.7027027,22.1621622 L82.7027027,19.1351351 L85.7297297,19.1351351 L85.7297297,22.1621622 L82.7027027,22.1621622 Z M82.7027027,25.1891892 L82.7027027,22.1621622 L85.7297297,22.1621622 L85.7297297,25.1891892 L82.7027027,25.1891892 Z M82.7027027,28.2162162 L82.7027027,25.1891892 L85.7297297,25.1891892 L85.7297297,28.2162162 L82.7027027,28.2162162 Z M82.7027027,31.2432432 L82.7027027,28.2162162 L85.7297297,28.2162162 L85.7297297,31.2432432 L82.7027027,31.2432432 Z M82.7027027,37.2972973 L82.7027027,34.2702703 L85.7297297,34.2702703 L85.7297297,37.2972973 L82.7027027,37.2972973 Z M82.7027027,40.3243243 L82.7027027,37.2972973 L85.7297297,37.2972973 L85.7297297,40.3243243 L82.7027027,40.3243243 Z M82.7027027,43.3513514 L82.7027027,40.3243243 L85.7297297,40.3243243 L85.7297297,43.3513514 L82.7027027,43.3513514 Z M82.7027027,46.3783784 L82.7027027,43.3513514 L85.7297297,43.3513514 L85.7297297,46.3783784 L82.7027027,46.3783784 Z M82.7027027,49.4054054 L82.7027027,46.3783784 L85.7297297,46.3783784 L85.7297297,49.4054054 L82.7027027,49.4054054 Z M82.7027027,52.4324324 L82.7027027,49.4054054 L85.7297297,49.4054054 L85.7297297,52.4324324 L82.7027027,52.4324324 Z M82.7027027,61.5135135 L82.7027027,58.4864865 L85.7297297,58.4864865 L85.7297297,61.5135135 L82.7027027,61.5135135 Z M82.7027027,67.5675676 L82.7027027,64.5405405 L85.7297297,64.5405405 L85.7297297,67.5675676 L82.7027027,67.5675676 Z M82.7027027,73.6216216 L82.7027027,70.5945946 L85.7297297,70.5945946 L85.7297297,73.6216216 L82.7027027,73.6216216 Z M82.7027027,76.6486486 L82.7027027,73.6216216 L85.7297297,73.6216216 L85.7297297,76.6486486 L82.7027027,76.6486486 Z M82.7027027,79.6756757 L82.7027027,76.6486486 L85.7297297,76.6486486 L85.7297297,79.6756757 L82.7027027,79.6756757 Z M82.7027027,82.7027027 L82.7027027,79.6756757 L85.7297297,79.6756757 L85.7297297,82.7027027 L82.7027027,82.7027027 Z M82.7027027,85.7297297 L82.7027027,82.7027027 L85.7297297,82.7027027 L85.7297297,85.7297297 L82.7027027,85.7297297 Z M82.7027027,88.7567568 L82.7027027,85.7297297 L85.7297297,85.7297297 L85.7297297,88.7567568 L82.7027027,88.7567568 Z M82.7027027,91.7837838 L82.7027027,88.7567568 L85.7297297,88.7567568 L85.7297297,91.7837838 L82.7027027,91.7837838 Z M82.7027027,94.8108108 L82.7027027,91.7837838 L85.7297297,91.7837838 L85.7297297,94.8108108 L82.7027027,94.8108108 Z M82.7027027,97.8378378 L82.7027027,94.8108108 L85.7297297,94.8108108 L85.7297297,97.8378378 L82.7027027,97.8378378 Z M82.7027027,103.891892 L82.7027027,100.864865 L85.7297297,100.864865 L85.7297297,103.891892 L82.7027027,103.891892 Z M82.7027027,109.945946 L82.7027027,106.918919 L85.7297297,106.918919 L85.7297297,109.945946 L82.7027027,109.945946 Z M82.7027027,116 L82.7027027,112.972973 L85.7297297,112.972973 L85.7297297,116 L82.7027027,116 Z M85.7297297,10.0540541 L85.7297297,7.02702703 L88.7567568,7.02702703 L88.7567568,10.0540541 L85.7297297,10.0540541 Z M85.7297297,22.1621622 L85.7297297,19.1351351 L88.7567568,19.1351351 L88.7567568,22.1621622 L85.7297297,22.1621622 Z M85.7297297,37.2972973 L85.7297297,34.2702703 L88.7567568,34.2702703 L88.7567568,37.2972973 L85.7297297,37.2972973 Z M85.7297297,49.4054054 L85.7297297,46.3783784 L88.7567568,46.3783784 L88.7567568,49.4054054 L85.7297297,49.4054054 Z M85.7297297,61.5135135 L85.7297297,58.4864865 L88.7567568,58.4864865 L88.7567568,61.5135135 L85.7297297,61.5135135 Z M85.7297297,67.5675676 L85.7297297,64.5405405 L88.7567568,64.5405405 L88.7567568,67.5675676 L85.7297297,67.5675676 Z M85.7297297,73.6216216 L85.7297297,70.5945946 L88.7567568,70.5945946 L88.7567568,73.6216216 L85.7297297,73.6216216 Z M85.7297297,85.7297297 L85.7297297,82.7027027 L88.7567568,82.7027027 L88.7567568,85.7297297 L85.7297297,85.7297297 Z M85.7297297,94.8108108 L85.7297297,91.7837838 L88.7567568,91.7837838 L88.7567568,94.8108108 L85.7297297,94.8108108 Z M85.7297297,100.864865 L85.7297297,97.8378378 L88.7567568,97.8378378 L88.7567568,100.864865 L85.7297297,100.864865 Z M85.7297297,103.891892 L85.7297297,100.864865 L88.7567568,100.864865 L88.7567568,103.891892 L85.7297297,103.891892 Z M85.7297297,106.918919 L85.7297297,103.891892 L88.7567568,103.891892 L88.7567568,106.918919 L85.7297297,106.918919 Z M85.7297297,109.945946 L85.7297297,106.918919 L88.7567568,106.918919 L88.7567568,109.945946 L85.7297297,109.945946 Z M85.7297297,112.972973 L85.7297297,109.945946 L88.7567568,109.945946 L88.7567568,112.972973 L85.7297297,112.972973 Z M88.7567568,7.02702703 L88.7567568,4 L91.7837838,4 L91.7837838,7.02702703 L88.7567568,7.02702703 Z M88.7567568,16.1081081 L88.7567568,13.0810811 L91.7837838,13.0810811 L91.7837838,16.1081081 L88.7567568,16.1081081 Z M88.7567568,19.1351351 L88.7567568,16.1081081 L91.7837838,16.1081081 L91.7837838,19.1351351 L88.7567568,19.1351351 Z M88.7567568,22.1621622 L88.7567568,19.1351351 L91.7837838,19.1351351 L91.7837838,22.1621622 L88.7567568,22.1621622 Z M88.7567568,25.1891892 L88.7567568,22.1621622 L91.7837838,22.1621622 L91.7837838,25.1891892 L88.7567568,25.1891892 Z M88.7567568,28.2162162 L88.7567568,25.1891892 L91.7837838,25.1891892 L91.7837838,28.2162162 L88.7567568,28.2162162 Z M88.7567568,31.2432432 L88.7567568,28.2162162 L91.7837838,28.2162162 L91.7837838,31.2432432 L88.7567568,31.2432432 Z M88.7567568,37.2972973 L88.7567568,34.2702703 L91.7837838,34.2702703 L91.7837838,37.2972973 L88.7567568,37.2972973 Z M88.7567568,40.3243243 L88.7567568,37.2972973 L91.7837838,37.2972973 L91.7837838,40.3243243 L88.7567568,40.3243243 Z M88.7567568,46.3783784 L88.7567568,43.3513514 L91.7837838,43.3513514 L91.7837838,46.3783784 L88.7567568,46.3783784 Z M88.7567568,49.4054054 L88.7567568,46.3783784 L91.7837838,46.3783784 L91.7837838,49.4054054 L88.7567568,49.4054054 Z M88.7567568,52.4324324 L88.7567568,49.4054054 L91.7837838,49.4054054 L91.7837838,52.4324324 L88.7567568,52.4324324 Z M88.7567568,55.4594595 L88.7567568,52.4324324 L91.7837838,52.4324324 L91.7837838,55.4594595 L88.7567568,55.4594595 Z M88.7567568,58.4864865 L88.7567568,55.4594595 L91.7837838,55.4594595 L91.7837838,58.4864865 L88.7567568,58.4864865 Z M88.7567568,61.5135135 L88.7567568,58.4864865 L91.7837838,58.4864865 L91.7837838,61.5135135 L88.7567568,61.5135135 Z M88.7567568,64.5405405 L88.7567568,61.5135135 L91.7837838,61.5135135 L91.7837838,64.5405405 L88.7567568,64.5405405 Z M88.7567568,73.6216216 L88.7567568,70.5945946 L91.7837838,70.5945946 L91.7837838,73.6216216 L88.7567568,73.6216216 Z M88.7567568,76.6486486 L88.7567568,73.6216216 L91.7837838,73.6216216 L91.7837838,76.6486486 L88.7567568,76.6486486 Z M88.7567568,79.6756757 L88.7567568,76.6486486 L91.7837838,76.6486486 L91.7837838,79.6756757 L88.7567568,79.6756757 Z M88.7567568,85.7297297 L88.7567568,82.7027027 L91.7837838,82.7027027 L91.7837838,85.7297297 L88.7567568,85.7297297 Z M88.7567568,88.7567568 L88.7567568,85.7297297 L91.7837838,85.7297297 L91.7837838,88.7567568 L88.7567568,88.7567568 Z M88.7567568,91.7837838 L88.7567568,88.7567568 L91.7837838,88.7567568 L91.7837838,91.7837838 L88.7567568,91.7837838 Z M88.7567568,94.8108108 L88.7567568,91.7837838 L91.7837838,91.7837838 L91.7837838,94.8108108 L88.7567568,94.8108108 Z M88.7567568,97.8378378 L88.7567568,94.8108108 L91.7837838,94.8108108 L91.7837838,97.8378378 L88.7567568,97.8378378 Z M88.7567568,100.864865 L88.7567568,97.8378378 L91.7837838,97.8378378 L91.7837838,100.864865 L88.7567568,100.864865 Z M88.7567568,103.891892 L88.7567568,100.864865 L91.7837838,100.864865 L91.7837838,103.891892 L88.7567568,103.891892 Z M88.7567568,112.972973 L88.7567568,109.945946 L91.7837838,109.945946 L91.7837838,112.972973 L88.7567568,112.972973 Z M91.7837838,31.2432432 L91.7837838,28.2162162 L94.8108108,28.2162162 L94.8108108,31.2432432 L91.7837838,31.2432432 Z M91.7837838,46.3783784 L91.7837838,43.3513514 L94.8108108,43.3513514 L94.8108108,46.3783784 L91.7837838,46.3783784 Z M91.7837838,52.4324324 L91.7837838,49.4054054 L94.8108108,49.4054054 L94.8108108,52.4324324 L91.7837838,52.4324324 Z M91.7837838,55.4594595 L91.7837838,52.4324324 L94.8108108,52.4324324 L94.8108108,55.4594595 L91.7837838,55.4594595 Z M91.7837838,67.5675676 L91.7837838,64.5405405 L94.8108108,64.5405405 L94.8108108,67.5675676 L91.7837838,67.5675676 Z M91.7837838,70.5945946 L91.7837838,67.5675676 L94.8108108,67.5675676 L94.8108108,70.5945946 L91.7837838,70.5945946 Z M91.7837838,73.6216216 L91.7837838,70.5945946 L94.8108108,70.5945946 L94.8108108,73.6216216 L91.7837838,73.6216216 Z M91.7837838,91.7837838 L91.7837838,88.7567568 L94.8108108,88.7567568 L94.8108108,91.7837838 L91.7837838,91.7837838 Z M91.7837838,103.891892 L91.7837838,100.864865 L94.8108108,100.864865 L94.8108108,103.891892 L91.7837838,103.891892 Z M91.7837838,112.972973 L91.7837838,109.945946 L94.8108108,109.945946 L94.8108108,112.972973 L91.7837838,112.972973 Z M94.8108108,7.02702703 L94.8108108,4 L97.8378378,4 L97.8378378,7.02702703 L94.8108108,7.02702703 Z M94.8108108,10.0540541 L94.8108108,7.02702703 L97.8378378,7.02702703 L97.8378378,10.0540541 L94.8108108,10.0540541 Z M94.8108108,13.0810811 L94.8108108,10.0540541 L97.8378378,10.0540541 L97.8378378,13.0810811 L94.8108108,13.0810811 Z M94.8108108,16.1081081 L94.8108108,13.0810811 L97.8378378,13.0810811 L97.8378378,16.1081081 L94.8108108,16.1081081 Z M94.8108108,19.1351351 L94.8108108,16.1081081 L97.8378378,16.1081081 L97.8378378,19.1351351 L94.8108108,19.1351351 Z M94.8108108,22.1621622 L94.8108108,19.1351351 L97.8378378,19.1351351 L97.8378378,22.1621622 L94.8108108,22.1621622 Z M94.8108108,25.1891892 L94.8108108,22.1621622 L97.8378378,22.1621622 L97.8378378,25.1891892 L94.8108108,25.1891892 Z M94.8108108,31.2432432 L94.8108108,28.2162162 L97.8378378,28.2162162 L97.8378378,31.2432432 L94.8108108,31.2432432 Z M94.8108108,37.2972973 L94.8108108,34.2702703 L97.8378378,34.2702703 L97.8378378,37.2972973 L94.8108108,37.2972973 Z M94.8108108,40.3243243 L94.8108108,37.2972973 L97.8378378,37.2972973 L97.8378378,40.3243243 L94.8108108,40.3243243 Z M94.8108108,43.3513514 L94.8108108,40.3243243 L97.8378378,40.3243243 L97.8378378,43.3513514 L94.8108108,43.3513514 Z M94.8108108,49.4054054 L94.8108108,46.3783784 L97.8378378,46.3783784 L97.8378378,49.4054054 L94.8108108,49.4054054 Z M94.8108108,52.4324324 L94.8108108,49.4054054 L97.8378378,49.4054054 L97.8378378,52.4324324 L94.8108108,52.4324324 Z M94.8108108,55.4594595 L94.8108108,52.4324324 L97.8378378,52.4324324 L97.8378378,55.4594595 L94.8108108,55.4594595 Z M94.8108108,61.5135135 L94.8108108,58.4864865 L97.8378378,58.4864865 L97.8378378,61.5135135 L94.8108108,61.5135135 Z M94.8108108,64.5405405 L94.8108108,61.5135135 L97.8378378,61.5135135 L97.8378378,64.5405405 L94.8108108,64.5405405 Z M94.8108108,67.5675676 L94.8108108,64.5405405 L97.8378378,64.5405405 L97.8378378,67.5675676 L94.8108108,67.5675676 Z M94.8108108,76.6486486 L94.8108108,73.6216216 L97.8378378,73.6216216 L97.8378378,76.6486486 L94.8108108,76.6486486 Z M94.8108108,79.6756757 L94.8108108,76.6486486 L97.8378378,76.6486486 L97.8378378,79.6756757 L94.8108108,79.6756757 Z M94.8108108,91.7837838 L94.8108108,88.7567568 L97.8378378,88.7567568 L97.8378378,91.7837838 L94.8108108,91.7837838 Z M94.8108108,97.8378378 L94.8108108,94.8108108 L97.8378378,94.8108108 L97.8378378,97.8378378 L94.8108108,97.8378378 Z M94.8108108,103.891892 L94.8108108,100.864865 L97.8378378,100.864865 L97.8378378,103.891892 L94.8108108,103.891892 Z M94.8108108,106.918919 L94.8108108,103.891892 L97.8378378,103.891892 L97.8378378,106.918919 L94.8108108,106.918919 Z M97.8378378,7.02702703 L97.8378378,4 L100.864486,4 L100.864486,7.02702703 L97.8378378,7.02702703 Z M97.8378378,25.1891892 L97.8378378,22.1621622 L100.864865,22.1621622 L100.864865,25.1891892 L97.8378378,25.1891892 Z M97.8378378,31.2432432 L97.8378378,28.2162162 L100.864865,28.2162162 L100.864865,31.2432432 L97.8378378,31.2432432 Z M97.8378378,34.2702703 L97.8378378,31.2432432 L100.864865,31.2432432 L100.864865,34.2702703 L97.8378378,34.2702703 Z M97.8378378,37.2972973 L97.8378378,34.2702703 L100.864865,34.2702703 L100.864865,37.2972973 L97.8378378,37.2972973 Z M97.8378378,40.3243243 L97.8378378,37.2972973 L100.864865,37.2972973 L100.864865,40.3243243 L97.8378378,40.3243243 Z M97.8378378,43.3513514 L97.8378378,40.3243243 L100.864865,40.3243243 L100.864865,43.3513514 L97.8378378,43.3513514 Z M97.8378378,46.3783784 L97.8378378,43.3513514 L100.864865,43.3513514 L100.864865,46.3783784 L97.8378378,46.3783784 Z M97.8378378,49.4054054 L97.8378378,46.3783784 L100.864865,46.3783784 L100.864865,49.4054054 L97.8378378,49.4054054 Z M97.8378378,58.4864865 L97.8378378,55.4594595 L100.864865,55.4594595 L100.864865,58.4864865 L97.8378378,58.4864865 Z M97.8378378,67.5675676 L97.8378378,64.5405405 L100.864865,64.5405405 L100.864865,67.5675676 L97.8378378,67.5675676 Z M97.8378378,70.5945946 L97.8378378,67.5675676 L100.864865,67.5675676 L100.864865,70.5945946 L97.8378378,70.5945946 Z M97.8378378,76.6486486 L97.8378378,73.6216216 L100.864865,73.6216216 L100.864865,76.6486486 L97.8378378,76.6486486 Z M97.8378378,82.7027027 L97.8378378,79.6756757 L100.864865,79.6756757 L100.864865,82.7027027 L97.8378378,82.7027027 Z M97.8378378,88.7567568 L97.8378378,85.7297297 L100.864865,85.7297297 L100.864865,88.7567568 L97.8378378,88.7567568 Z M97.8378378,91.7837838 L97.8378378,88.7567568 L100.864865,88.7567568 L100.864865,91.7837838 L97.8378378,91.7837838 Z M97.8378378,103.891892 L97.8378378,100.864865 L100.864865,100.864865 L100.864865,103.891892 L97.8378378,103.891892 Z M97.8378378,109.945946 L97.8378378,106.918919 L100.864865,106.918919 L100.864865,109.945946 L97.8378378,109.945946 Z M97.8378378,112.972973 L97.8378378,109.945946 L100.864865,109.945946 L100.864865,112.972973 L97.8378378,112.972973 Z M97.8378378,116 L97.8378378,112.972973 L100.864486,112.972973 L100.864486,116 L97.8378378,116 Z M100.864865,7.02702703 L100.864865,4 L103.891892,4 L103.891892,7.02702703 L100.864865,7.02702703 Z M100.864865,13.0810811 L100.864865,10.0540541 L103.891892,10.0540541 L103.891892,13.0810811 L100.864865,13.0810811 Z M100.864865,16.1081081 L100.864865,13.0810811 L103.891892,13.0810811 L103.891892,16.1081081 L100.864865,16.1081081 Z M100.864865,19.1351351 L100.864865,16.1081081 L103.891892,16.1081081 L103.891892,19.1351351 L100.864865,19.1351351 Z M100.864865,25.1891892 L100.864865,22.1621622 L103.891892,22.1621622 L103.891892,25.1891892 L100.864865,25.1891892 Z M100.864865,40.3243243 L100.864865,37.2972973 L103.891892,37.2972973 L103.891892,40.3243243 L100.864865,40.3243243 Z M100.864865,43.3513514 L100.864865,40.3243243 L103.891892,40.3243243 L103.891892,43.3513514 L100.864865,43.3513514 Z M100.864865,55.4594595 L100.864865,52.4324324 L103.891892,52.4324324 L103.891892,55.4594595 L100.864865,55.4594595 Z M100.864865,64.5405405 L100.864865,61.5135135 L103.891892,61.5135135 L103.891892,64.5405405 L100.864865,64.5405405 Z M100.864865,67.5675676 L100.864865,64.5405405 L103.891892,64.5405405 L103.891892,67.5675676 L100.864865,67.5675676 Z M100.864865,79.6756757 L100.864865,76.6486486 L103.891892,76.6486486 L103.891892,79.6756757 L100.864865,79.6756757 Z M100.864865,91.7837838 L100.864865,88.7567568 L103.891892,88.7567568 L103.891892,91.7837838 L100.864865,91.7837838 Z M100.864865,94.8108108 L100.864865,91.7837838 L103.891892,91.7837838 L103.891892,94.8108108 L100.864865,94.8108108 Z M100.864865,97.8378378 L100.864865,94.8108108 L103.891892,94.8108108 L103.891892,97.8378378 L100.864865,97.8378378 Z M100.864865,100.864865 L100.864865,97.8378378 L103.891892,97.8378378 L103.891892,100.864865 L100.864865,100.864865 Z M100.864865,103.891892 L100.864865,100.864865 L103.891892,100.864865 L103.891892,103.891892 L100.864865,103.891892 Z M100.864865,106.918919 L100.864865,103.891892 L103.891892,103.891892 L103.891892,106.918919 L100.864865,106.918919 Z M100.864865,112.972973 L100.864865,109.945946 L103.891892,109.945946 L103.891892,112.972973 L100.864865,112.972973 Z M100.864865,116 L100.864865,112.972973 L103.891892,112.972973 L103.891892,116 L100.864865,116 Z M103.891892,7.02702703 L103.891892,4 L106.918919,4 L106.918919,7.02702703 L103.891892,7.02702703 Z M103.891892,13.0810811 L103.891892,10.0540541 L106.918919,10.0540541 L106.918919,13.0810811 L103.891892,13.0810811 Z M103.891892,16.1081081 L103.891892,13.0810811 L106.918919,13.0810811 L106.918919,16.1081081 L103.891892,16.1081081 Z M103.891892,19.1351351 L103.891892,16.1081081 L106.918919,16.1081081 L106.918919,19.1351351 L103.891892,19.1351351 Z M103.891892,25.1891892 L103.891892,22.1621622 L106.918919,22.1621622 L106.918919,25.1891892 L103.891892,25.1891892 Z M103.891892,37.2972973 L103.891892,34.2702703 L106.918919,34.2702703 L106.918919,37.2972973 L103.891892,37.2972973 Z M103.891892,43.3513514 L103.891892,40.3243243 L106.918919,40.3243243 L106.918919,43.3513514 L103.891892,43.3513514 Z M103.891892,46.3783784 L103.891892,43.3513514 L106.918919,43.3513514 L106.918919,46.3783784 L103.891892,46.3783784 Z M103.891892,49.4054054 L103.891892,46.3783784 L106.918919,46.3783784 L106.918919,49.4054054 L103.891892,49.4054054 Z M103.891892,58.4864865 L103.891892,55.4594595 L106.918919,55.4594595 L106.918919,58.4864865 L103.891892,58.4864865 Z M103.891892,76.6486486 L103.891892,73.6216216 L106.918919,73.6216216 L106.918919,76.6486486 L103.891892,76.6486486 Z M103.891892,79.6756757 L103.891892,76.6486486 L106.918919,76.6486486 L106.918919,79.6756757 L103.891892,79.6756757 Z M103.891892,82.7027027 L103.891892,79.6756757 L106.918919,79.6756757 L106.918919,82.7027027 L103.891892,82.7027027 Z M103.891892,85.7297297 L103.891892,82.7027027 L106.918919,82.7027027 L106.918919,85.7297297 L103.891892,85.7297297 Z M103.891892,97.8378378 L103.891892,94.8108108 L106.918919,94.8108108 L106.918919,97.8378378 L103.891892,97.8378378 Z M103.891892,106.918919 L103.891892,103.891892 L106.918919,103.891892 L106.918919,106.918919 L103.891892,106.918919 Z M103.891892,116 L103.891892,112.972973 L106.918919,112.972973 L106.918919,116 L103.891892,116 Z M106.918919,7.02702703 L106.918919,4 L109.945946,4 L109.945946,7.02702703 L106.918919,7.02702703 Z M106.918919,13.0810811 L106.918919,10.0540541 L109.945946,10.0540541 L109.945946,13.0810811 L106.918919,13.0810811 Z M106.918919,16.1081081 L106.918919,13.0810811 L109.945946,13.0810811 L109.945946,16.1081081 L106.918919,16.1081081 Z M106.918919,19.1351351 L106.918919,16.1081081 L109.945946,16.1081081 L109.945946,19.1351351 L106.918919,19.1351351 Z M106.918919,25.1891892 L106.918919,22.1621622 L109.945946,22.1621622 L109.945946,25.1891892 L106.918919,25.1891892 Z M106.918919,31.2432432 L106.918919,28.2162162 L109.945946,28.2162162 L109.945946,31.2432432 L106.918919,31.2432432 Z M106.918919,34.2702703 L106.918919,31.2432432 L109.945946,31.2432432 L109.945946,34.2702703 L106.918919,34.2702703 Z M106.918919,37.2972973 L106.918919,34.2702703 L109.945946,34.2702703 L109.945946,37.2972973 L106.918919,37.2972973 Z M106.918919,43.3513514 L106.918919,40.3243243 L109.945946,40.3243243 L109.945946,43.3513514 L106.918919,43.3513514 Z M106.918919,46.3783784 L106.918919,43.3513514 L109.945946,43.3513514 L109.945946,46.3783784 L106.918919,46.3783784 Z M106.918919,55.4594595 L106.918919,52.4324324 L109.945946,52.4324324 L109.945946,55.4594595 L106.918919,55.4594595 Z M106.918919,58.4864865 L106.918919,55.4594595 L109.945946,55.4594595 L109.945946,58.4864865 L106.918919,58.4864865 Z M106.918919,67.5675676 L106.918919,64.5405405 L109.945946,64.5405405 L109.945946,67.5675676 L106.918919,67.5675676 Z M106.918919,70.5945946 L106.918919,67.5675676 L109.945946,67.5675676 L109.945946,70.5945946 L106.918919,70.5945946 Z M106.918919,79.6756757 L106.918919,76.6486486 L109.945946,76.6486486 L109.945946,79.6756757 L106.918919,79.6756757 Z M106.918919,82.7027027 L106.918919,79.6756757 L109.945946,79.6756757 L109.945946,82.7027027 L106.918919,82.7027027 Z M106.918919,91.7837838 L106.918919,88.7567568 L109.945946,88.7567568 L109.945946,91.7837838 L106.918919,91.7837838 Z M106.918919,103.891892 L106.918919,100.864865 L109.945946,100.864865 L109.945946,103.891892 L106.918919,103.891892 Z M106.918919,109.945946 L106.918919,106.918919 L109.945946,106.918919 L109.945946,109.945946 L106.918919,109.945946 Z M106.918919,116 L106.918919,112.972973 L109.945946,112.972973 L109.945946,116 L106.918919,116 Z M109.945946,7.02702703 L109.945946,4 L112.972973,4 L112.972973,7.02702703 L109.945946,7.02702703 Z M109.945946,25.1891892 L109.945946,22.1621622 L112.972973,22.1621622 L112.972973,25.1891892 L109.945946,25.1891892 Z M109.945946,31.2432432 L109.945946,28.2162162 L112.972973,28.2162162 L112.972973,31.2432432 L109.945946,31.2432432 Z M109.945946,37.2972973 L109.945946,34.2702703 L112.972973,34.2702703 L112.972973,37.2972973 L109.945946,37.2972973 Z M109.945946,40.3243243 L109.945946,37.2972973 L112.972973,37.2972973 L112.972973,40.3243243 L109.945946,40.3243243 Z M109.945946,43.3513514 L109.945946,40.3243243 L112.972973,40.3243243 L112.972973,43.3513514 L109.945946,43.3513514 Z M109.945946,49.4054054 L109.945946,46.3783784 L112.972973,46.3783784 L112.972973,49.4054054 L109.945946,49.4054054 Z M109.945946,55.4594595 L109.945946,52.4324324 L112.972973,52.4324324 L112.972973,55.4594595 L109.945946,55.4594595 Z M109.945946,61.5135135 L109.945946,58.4864865 L112.972973,58.4864865 L112.972973,61.5135135 L109.945946,61.5135135 Z M109.945946,64.5405405 L109.945946,61.5135135 L112.972973,61.5135135 L112.972973,64.5405405 L109.945946,64.5405405 Z M109.945946,85.7297297 L109.945946,82.7027027 L112.972973,82.7027027 L112.972973,85.7297297 L109.945946,85.7297297 Z M109.945946,88.7567568 L109.945946,85.7297297 L112.972973,85.7297297 L112.972973,88.7567568 L109.945946,88.7567568 Z M109.945946,100.864865 L109.945946,97.8378378 L112.972973,97.8378378 L112.972973,100.864865 L109.945946,100.864865 Z M109.945946,103.891892 L109.945946,100.864865 L112.972973,100.864865 L112.972973,103.891892 L109.945946,103.891892 Z M109.945946,116 L109.945946,112.972973 L112.972973,112.972973 L112.972973,116 L109.945946,116 Z M112.972973,7.02702703 L112.972973,4 L116,4 L116,7.02702703 L112.972973,7.02702703 Z M112.972973,10.0540541 L112.972973,7.02702703 L116,7.02702703 L116,10.0540541 L112.972973,10.0540541 Z M112.972973,13.0810811 L112.972973,10.0540541 L116,10.0540541 L116,13.0810811 L112.972973,13.0810811 Z M112.972973,16.1081081 L112.972973,13.0810811 L116,13.0810811 L116,16.1081081 L112.972973,16.1081081 Z M112.972973,19.1351351 L112.972973,16.1081081 L116,16.1081081 L116,19.1351351 L112.972973,19.1351351 Z M112.972973,22.1621622 L112.972973,19.1355135 L116,19.1355135 L116,22.1621622 L112.972973,22.1621622 Z M112.972973,25.1891892 L112.972973,22.1621622 L116,22.1621622 L116,25.1891892 L112.972973,25.1891892 Z M112.972973,31.2432432 L112.972973,28.2162162 L116,28.2162162 L116,31.2432432 L112.972973,31.2432432 Z M112.972973,37.2972973 L112.972973,34.2702703 L116,34.2702703 L116,37.2972973 L112.972973,37.2972973 Z M112.972973,49.4054054 L112.972973,46.3787568 L116,46.3787568 L116,49.4054054 L112.972973,49.4054054 Z M112.972973,61.5135135 L112.972973,58.4864865 L116,58.4864865 L116,61.5135135 L112.972973,61.5135135 Z M112.972973,73.6216216 L112.972973,70.5945946 L116,70.5945946 L116,73.6216216 L112.972973,73.6216216 Z M112.972973,76.6486486 L112.972973,73.622 L116,73.622 L116,76.6486486 L112.972973,76.6486486 Z M112.972973,85.7297297 L112.972973,82.7027027 L116,82.7027027 L116,85.7297297 L112.972973,85.7297297 Z M112.972973,91.7837838 L112.972973,88.7567568 L116,88.7567568 L116,91.7837838 L112.972973,91.7837838 Z M112.972973,97.8378378 L112.972973,94.8108108 L116,94.8108108 L116,97.8378378 L112.972973,97.8378378 Z M112.972973,103.891892 L112.972973,100.865243 L116,100.865243 L116,103.891892 L112.972973,103.891892 Z M112.972973,109.945946 L112.972973,106.918919 L116,106.918919 L116,109.945946 L112.972973,109.945946 Z M112.972973,112.972973 L112.972973,109.945946 L116,109.945946 L116,112.972973 L112.972973,112.972973 Z M112.972973,116 L112.972973,112.972973 L116,112.972973 L116,116 L112.972973,116 Z" id="Combined-Shape" fill="#272121"></path>
                        <g id="LOGO" filter="url(#filter-1)" transform="translate(46.000000, 46.000000)">
                            <rect fill="#FFFBFF" x="0" y="-7.10542736e-15" width="28.5714286" height="28.5714286" rx="4.3902439"></rect>
                            <path d="M9.01929545,12.021503 C8.74269782,12.4145653 8.57142857,12.9624324 8.57142857,13.5716372 C8.57142857,14.1804248 8.74269782,14.7278746 9.01929545,15.1213542 C9.27730572,15.4872943 9.62426978,15.7142857 10,15.7142857 C10.3752877,15.7142857 10.7226943,15.4872943 10.9807045,15.1213542 C11.2573022,14.7278746 11.4285714,14.1804248 11.4285714,13.5716372 C11.4285714,12.9624324 11.2573022,12.4145653 10.9807045,12.021503 C10.7226943,11.6555628 10.3752877,11.4285714 10,11.4285714 C9.62426978,11.4285714 9.27730572,11.6555628 9.01929545,12.021503" id="Fill-4" fill="#FF2B56"></path>
                            <path d="M14.7335812,12.021503 C14.4569835,12.4145653 14.2857143,12.9624324 14.2857143,13.5716372 C14.2857143,14.1804248 14.4569835,14.7278746 14.7335812,15.1213542 C14.9911489,15.4872943 15.3385555,15.7142857 15.7142857,15.7142857 C16.0900159,15.7142857 16.4374226,15.4872943 16.6949903,15.1213542 C16.9715879,14.7278746 17.1428571,14.1804248 17.1428571,13.5716372 C17.1428571,12.9624324 16.9715879,12.4145653 16.6949903,12.021503 C16.4374226,11.6555628 16.0900159,11.4285714 15.7142857,11.4285714 C15.3385555,11.4285714 14.9911489,11.6555628 14.7335812,12.021503" id="Fill-6" fill="#FF2B56"></path>
                            <g id="Group-3" transform="translate(4.285714, 5.714286)" fill="#FF2B56">
                                <path d="M4.00913491,12.2738184 C1.03761246,9.93805189 1.03868819,6.10917332 4.00949348,3.77304822 C6.57188028,1.75784898 10.5215991,1.5025426 13.4490166,3.11792918 C14.6929181,3.80388579 15.6560542,4.77168343 16.2147162,5.95390975 C16.4255591,6.40177165 16.9544593,6.59396859 17.3973011,6.3842014 C17.8469559,6.17228277 18.0370014,5.63549393 17.8283099,5.18799061 C16.3387837,1.99666085 12.7921047,0.269039856 9.23287558,0.269039856 C6.67120594,0.269039856 4.35265108,1.14898629 2.67738224,2.56894874 C-0.892604177,5.59533337 -0.892604177,10.452609 2.67738224,13.4789936 C6.44601997,16.6735506 12.7713073,16.551276 16.2900173,13.0282631 L16.619549,12.6987314 C17.2578149,13.3079527 17.669102,13.685175 18.5572957,14.1090123 C19.063247,14.3503342 19.6208332,14.5407383 20.2232416,14.6705429 C19.7165731,14.1409256 19.2522167,13.5725821 18.8316066,12.9676637 C18.3532658,12.2806314 17.9279942,11.5423226 17.5586605,10.7588332 C17.5077427,10.6881937 17.4589763,10.4597805 17.1731909,10.2865881 C16.7299905,10.0172973 16.2380237,10.1897725 15.948294,10.6139684 L15.9475768,10.6136098 L15.1063567,11.6771473 C13.6232848,13.1982283 11.3997526,13.9838692 9.23287558,13.9838692 C7.20082325,13.9838692 5.35236202,13.3298258 4.00913491,12.2738184 L4.00913491,12.2738184 Z" id="Fill-1"></path>
                            </g>
                        </g>
                    </g>
                </g>
            </g>
        </g>
    </g>
</svg>